<svg width="52" height="57" viewBox="0 0 52 57" fill="none" xmlns="http://www.w3.org/2000/svg">
<path d="M40.5468 12.0762C40.5468 14.2738 40.5468 16.44 40.5468 18.6408C40.71 18.6477 40.8567 18.6593 41.0038 18.6593C43.595 18.6603 46.1859 18.6603 48.7771 18.6599C49.3784 18.6599 49.9578 18.7492 50.4782 19.0755C51.3114 19.598 51.7702 20.3528 51.8629 21.3299C51.8762 21.4683 51.8685 21.6085 51.8685 21.7479C51.8688 32.2988 51.8674 42.8497 51.8709 53.4006C51.8713 54.1755 51.6652 54.8682 51.1448 55.4504C50.6086 56.0503 49.9309 56.3672 49.1278 56.4108C48.9656 56.4195 48.8025 56.416 48.6397 56.416C35.6029 56.4164 22.5658 56.4132 9.52895 56.4195C7.74618 56.4202 6.10878 55.9524 4.63139 54.9669C3.34991 54.1121 2.37138 52.9774 1.70345 51.5833C1.3402 50.8251 1.1021 50.0317 0.964753 49.1992C0.875162 48.6557 0.852851 48.1147 0.852851 47.5695C0.851457 34.8921 0.854944 22.2147 0.846926 9.53764C0.846228 8.31229 1.04493 7.13156 1.50579 6.00347C2.00046 4.79277 2.74648 3.748 3.73024 2.88101C4.9155 1.83659 6.28622 1.16657 7.8403 0.877926C8.40051 0.774042 8.9649 0.723145 9.53662 0.723493C19.8083 0.726631 30.0796 0.727677 40.3513 0.723145C41.6679 0.722448 42.8156 1.1467 43.7683 2.0461C44.4836 2.72135 44.9766 3.54336 45.1435 4.52748C45.2094 4.91443 45.2439 5.31079 45.2464 5.70332C45.2572 7.41149 45.2513 9.11966 45.2509 10.8278C45.2509 10.9439 45.2547 11.061 45.2432 11.1761C45.1965 11.6429 44.8552 11.9904 44.3871 12.0466C44.2724 12.0605 44.1552 12.0577 44.0392 12.0577C43.0052 12.0584 41.9709 12.0577 40.9369 12.0591C40.8135 12.0588 40.6894 12.0692 40.5468 12.0762ZM25.6244 54.537C25.3225 53.4703 25.4351 52.4559 25.4344 51.4501C25.4271 41.654 25.4299 31.8575 25.4299 22.0613C25.4299 21.9682 25.4337 21.8751 25.4289 21.7824C25.424 21.6928 25.41 21.6036 25.3964 21.4805C24.7766 21.4805 24.1777 21.4805 23.5861 21.4805C23.5063 21.051 23.5255 19.8511 23.613 19.6179C24.2934 19.6179 24.9791 19.6082 25.6638 19.6221C25.9992 19.6287 26.3112 19.6193 26.5287 19.3129C26.5534 19.278 26.6075 19.2655 26.6448 19.2383C27.2099 18.8214 27.8607 18.6798 28.5433 18.6784C31.7505 18.6721 34.9576 18.6756 38.1648 18.6756C38.3126 18.6756 38.4608 18.6756 38.625 18.6756C38.625 13.3022 38.625 7.97588 38.625 2.60527C38.4409 2.60527 38.2812 2.60527 38.1216 2.60527C28.651 2.60527 19.1804 2.60492 9.71022 2.60666C9.20126 2.60666 8.69717 2.60736 8.18647 2.70322C7.59976 2.81338 7.04199 2.98455 6.50863 3.2352C5.46943 3.72359 4.61953 4.44625 3.95091 5.38086C3.48064 6.03833 3.14772 6.75786 2.93926 7.54048C2.76112 8.21015 2.72835 8.88714 2.7287 9.57564C2.73428 22.2307 2.73253 34.8858 2.73288 47.5405C2.73288 48.062 2.73811 48.5783 2.8291 49.1002C2.95634 49.8309 3.20838 50.5075 3.56117 51.1469C4.00913 51.9577 4.60629 52.6466 5.34917 53.2092C6.13736 53.8064 7.01933 54.1919 7.97661 54.4154C8.51137 54.5402 9.05484 54.5412 9.60146 54.5405C14.7723 54.5353 19.9435 54.5374 25.1144 54.5374C25.2626 54.537 25.4111 54.537 25.6244 54.537ZM49.9996 37.5659C49.9993 37.5659 49.9993 37.5659 49.9989 37.5659C49.9989 32.2315 49.9993 26.8971 49.9968 21.5628C49.9968 21.4373 49.986 21.3048 49.9463 21.1873C49.7901 20.7272 49.4547 20.5239 48.8823 20.5239C42.1654 20.5239 35.4485 20.5243 28.7312 20.5243C28.5802 20.5243 28.4289 20.5187 28.278 20.5246C27.6662 20.548 27.2883 20.9322 27.2747 21.5461C27.2705 21.7434 27.2792 21.941 27.2792 22.1387C27.2796 32.4354 27.2796 42.7322 27.2792 53.029C27.2792 53.1569 27.2834 53.2848 27.2765 53.4124C27.2378 54.1337 27.7202 54.5594 28.4032 54.5562C32.6216 54.5367 36.8401 54.5465 41.0586 54.5465C43.6965 54.5465 46.3347 54.5471 48.9726 54.5461C49.6109 54.5458 49.9993 54.1599 49.9993 53.5338C49.9996 48.2112 49.9996 42.8887 49.9996 37.5659ZM40.5636 2.65686C40.5636 5.15392 40.5636 7.63251 40.5636 10.1317C41.4961 10.1317 42.4066 10.1317 43.3196 10.1317C43.3336 10.0846 43.3517 10.0525 43.3517 10.0205C43.3524 8.46463 43.388 6.90776 43.3412 5.35332C43.2931 3.75741 41.9841 2.65268 40.5636 2.65686Z" fill="#FEFAF7"/>
<path d="M12.2455 52.602C9.29563 52.5916 6.69015 50.403 6.58069 47.1722C6.47402 44.0194 8.81804 41.4076 12.1842 41.3571C15.1438 41.3125 17.7329 43.6268 17.8204 46.8152C17.9069 49.9533 15.5092 52.5044 12.2455 52.602ZM11.245 43.3379C10.5105 43.4871 9.92626 43.8932 9.54245 44.2777C8.60783 45.2144 8.24249 46.347 8.46316 47.6491C8.61132 48.523 9.03697 49.26 9.71047 49.8407C10.1082 50.1838 10.5565 50.4438 11.0659 50.5934C12.2529 50.9413 13.3558 50.7729 14.3713 50.0628C14.4292 50.0224 14.462 49.9453 14.5143 49.8753C14.4201 49.7986 14.3511 49.7386 14.2783 49.6839C13.4528 49.0641 12.6318 48.438 11.7979 47.8293C11.4166 47.5508 11.2506 47.1962 11.2558 46.7291C11.2666 45.7077 11.2597 44.6859 11.259 43.6642C11.259 43.5638 11.2506 43.4637 11.245 43.3379ZM13.1543 43.3424C13.1411 43.4114 13.1254 43.4553 13.1254 43.4996C13.1251 44.4391 13.1292 45.3786 13.1247 46.3181C13.124 46.4753 13.1829 46.5701 13.3074 46.6625C14.0429 47.207 14.7712 47.761 15.504 48.3097C15.5545 48.3477 15.62 48.3654 15.6783 48.3923C16.5728 46.5161 15.4708 43.9172 13.1543 43.3424Z" fill="#FEFAF7"/>
<path d="M12.2412 39.3927C9.27561 39.369 6.68686 37.1815 6.58054 33.9555C6.47595 30.7884 8.83636 28.1899 12.1889 28.1446C15.1691 28.1041 17.7387 30.4408 17.8199 33.6072C17.9008 36.7506 15.5094 39.287 12.2412 39.3927ZM11.6935 37.5102C13.1096 37.6671 14.2366 37.2317 15.0952 36.2078C16.0734 35.0421 16.2645 33.6978 15.6865 32.2971C15.2214 31.1701 14.3593 30.4464 13.1392 30.1128C13.1319 30.2536 13.1228 30.3443 13.1228 30.4352C13.1221 31.4096 13.1145 32.3843 13.1273 33.3587C13.1322 33.7268 13.0636 34.0702 12.9255 34.4076C12.6403 35.1045 12.3597 35.8034 12.0805 36.5031C11.9574 36.8126 11.8413 37.1253 11.6935 37.5102ZM11.2285 30.1564C9.94005 30.3627 8.5648 31.6725 8.41037 33.4148C8.28975 34.7747 9.06261 36.4065 9.99304 36.7391C10.0153 36.7046 10.0467 36.6704 10.0628 36.63C10.4368 35.6943 10.8112 34.759 11.1786 33.8209C11.2236 33.7059 11.2498 33.5755 11.2505 33.4521C11.256 32.4415 11.2539 31.4309 11.2522 30.4203C11.2522 30.3331 11.2372 30.2456 11.2285 30.1564Z" fill="#FEFAF7"/>
<path d="M12.239 26.1782C9.29191 26.1636 6.68574 23.9764 6.58046 20.7419C6.47692 17.5706 8.84779 14.9769 12.1902 14.9326C15.1582 14.8932 17.7386 17.2213 17.8209 20.3968C17.9018 23.5315 15.5072 26.0831 12.239 26.1782ZM13.1273 16.903C13.1273 17.0386 13.1273 17.1394 13.1273 17.2401C13.1276 18.2974 13.1241 19.3548 13.1297 20.4121C13.1318 20.7879 12.9962 21.1027 12.7058 21.3259C12.0438 21.8341 11.3661 22.3215 10.6968 22.82C10.421 23.0254 10.1498 23.237 9.87583 23.4461C10.4922 24.1796 12.0501 24.5861 13.3298 24.1747C14.9372 23.6581 16.0134 22.1535 15.9886 20.4906C15.9663 18.9546 14.894 17.3597 13.1273 16.903ZM8.70939 21.9659C8.78888 21.9269 8.87637 21.899 8.94575 21.847C9.64261 21.3255 10.3318 20.7935 11.0346 20.2804C11.2068 20.1545 11.264 20.0196 11.2622 19.815C11.2539 18.9434 11.2601 18.0722 11.258 17.2007C11.2577 17.1139 11.2385 17.0274 11.2277 16.9382C9.08902 17.374 7.77966 19.9293 8.70939 21.9659Z" fill="#FEFAF7"/>
<path d="M24.4625 15.8027C23.8218 15.8027 23.234 15.8027 22.6156 15.8027C22.6156 15.3513 22.6156 14.9156 22.6156 14.4885C22.153 14.2637 21.7221 14.0451 21.2832 13.8443C21.0465 13.7362 20.9113 13.5599 20.7882 13.3368C20.577 12.9533 20.8646 12.3935 21.1354 12.2362C21.422 12.07 21.712 12.0072 22.0247 12.178C22.2468 12.2993 22.4755 12.4098 22.7062 12.5134C23.1138 12.6964 23.5342 12.8519 23.9773 12.6587C24.139 12.5883 24.2903 12.4614 24.4053 12.3255C24.5518 12.1522 24.5256 11.8817 24.3544 11.7245C24.1948 11.5777 24.0166 11.4418 23.8253 11.341C23.2724 11.0503 22.7059 10.7854 22.1499 10.5002C21.6088 10.2231 21.1891 9.82917 20.9357 9.25956C20.5424 8.37552 20.6714 7.56189 21.2397 6.80857C21.5788 6.35888 21.9118 6.15112 22.5978 5.88827C22.5978 5.45462 22.5978 5.00702 22.5978 4.53955C23.2281 4.53955 23.8249 4.53955 24.4465 4.53955C24.4465 4.99273 24.4465 5.42987 24.4465 5.85969C24.8631 6.05525 25.2605 6.23373 25.6502 6.42755C25.9002 6.552 26.1254 6.70469 26.255 6.97694C26.4231 7.32973 26.3377 7.6344 26.1156 7.91572C25.8782 8.21656 25.5052 8.34031 25.1845 8.21377C24.8948 8.09908 24.6201 7.94639 24.336 7.81706C23.9605 7.6459 23.5718 7.52145 23.1608 7.66473C23.0022 7.72015 22.8432 7.81044 22.7209 7.92408C22.5145 8.11546 22.5075 8.41177 22.7066 8.60838C22.8596 8.75967 23.0405 8.89423 23.2309 8.99497C23.7803 9.2857 24.3402 9.55691 24.8969 9.8337C25.4679 10.1175 25.9012 10.5372 26.1491 11.1291C26.5067 11.9838 26.3924 12.7849 25.8357 13.5194C25.5484 13.8983 25.4013 14.0604 24.4636 14.4627C24.4625 14.8887 24.4625 15.3262 24.4625 15.8027Z" fill="#FEFAF7"/>
<path d="M19.782 47.8862C19.782 47.2705 19.782 46.675 19.782 46.0635C21.0262 46.0635 22.2481 46.0635 23.4901 46.0635C23.4901 46.6788 23.4901 47.2733 23.4901 47.8862C22.2456 47.8862 21.0238 47.8862 19.782 47.8862Z" fill="#FEFAF7"/>
<path d="M23.5133 34.6748C22.242 34.6748 21.0257 34.6748 19.7847 34.6748C19.7847 34.0721 19.7847 33.4845 19.7847 32.8933C20.0053 32.8142 23.0957 32.7968 23.4921 32.8797C23.4987 32.94 23.5119 33.0066 23.5119 33.0735C23.514 33.5943 23.5133 34.1154 23.5133 34.6748Z" fill="#FEFAF7"/>
<path d="M16.8686 11.5691C16.0508 11.5119 15.484 10.8259 15.5171 10.1225C15.5561 9.29043 16.2756 8.73898 16.961 8.77244C17.7841 8.81253 18.3471 9.52119 18.3129 10.2149C18.2728 11.0372 17.5672 11.5827 16.8686 11.5691Z" fill="#FEFAF7"/>
<path d="M31.5375 10.1645C31.532 10.9196 30.8978 11.5645 30.1421 11.5659C29.3832 11.5673 28.7466 10.9276 28.7389 10.1729C28.7313 9.42827 29.3884 8.77184 30.1337 8.76905C30.8797 8.76592 31.5361 9.41851 31.5375 10.1645Z" fill="#FEFAF7"/>
<path d="M19.7838 19.6362C20.3931 19.6362 20.9802 19.6362 21.5965 19.6362C21.5965 20.2407 21.5965 20.8361 21.5965 21.4565C20.9976 21.4565 20.4019 21.4565 19.7838 21.4565C19.7838 20.8472 19.7838 20.2511 19.7838 19.6362Z" fill="#FEFAF7"/>
<path d="M48.06 43.2496C48.06 45.9802 48.0582 48.7112 48.0617 51.4418C48.0621 51.8336 47.992 52.1937 47.6343 52.4109C47.4719 52.5095 47.2739 52.5555 47.0863 52.6043C46.9884 52.6298 46.8782 52.6106 46.7736 52.6106C41.3472 52.6106 35.9208 52.6037 30.4945 52.6186C29.6958 52.6207 29.2102 52.2829 29.2123 51.3267C29.2241 45.9119 29.2238 40.4967 29.2119 35.0819C29.2102 34.2261 29.5766 33.7771 30.5262 33.7788C35.9411 33.7889 41.356 33.7837 46.7705 33.7851C46.9207 33.7851 47.0741 33.7872 47.2205 33.8161C47.7431 33.9193 48.0244 34.2484 48.0576 34.779C48.0642 34.8832 48.0596 34.9881 48.0596 35.0927C48.06 37.8114 48.06 40.5305 48.06 43.2496ZM46.1859 46.996C46.1001 46.9818 46.0552 46.9678 46.0102 46.9678C42.9916 46.9668 39.9734 46.9664 36.9548 46.9675C36.9095 46.9675 36.8642 46.9818 36.8192 46.9912C36.8087 46.9933 36.7997 47.0034 36.791 47.011C36.7829 47.0184 36.7763 47.0278 36.7676 47.0375C36.7676 48.2615 36.7676 49.4865 36.7676 50.7062C37.1361 50.7847 45.9101 50.7724 46.1855 50.6937C46.1859 49.4732 46.1859 48.2479 46.1859 46.996ZM46.1685 45.078C46.2528 44.635 46.2291 41.5537 46.1451 41.3233C45.6672 41.2615 42.6918 41.2832 42.4209 41.3553C42.4209 42.5841 42.4209 43.8185 42.4209 45.078C43.677 45.078 44.9124 45.078 46.1685 45.078ZM34.8607 41.318C33.5845 41.318 32.3483 41.318 31.1171 41.318C31.0324 41.7004 31.0494 44.8333 31.1321 45.0756C31.6386 45.1397 34.5982 45.1153 34.8611 45.0404C34.8607 43.8168 34.8607 42.5887 34.8607 41.318ZM31.0906 50.7202C31.5065 50.7989 34.6 50.7815 34.8464 50.7041C34.9064 50.2889 34.8886 47.2505 34.8248 47.0006C34.4428 46.9221 31.3426 46.9396 31.0906 47.0239C31.0906 48.2559 31.0906 49.4903 31.0906 50.7202ZM42.4234 39.3815C42.7723 39.4676 45.9143 39.4582 46.1775 39.376C46.2434 38.9786 46.2274 35.9168 46.1583 35.6696C45.6658 35.5874 42.6514 35.6191 42.4234 35.7094C42.4234 36.9351 42.4234 38.1611 42.4234 39.3815ZM40.5259 41.3201C39.2521 41.3201 38.0174 41.3201 36.7585 41.3201C36.7585 42.581 36.7585 43.8168 36.7585 45.0484C37.0977 45.131 40.2439 45.122 40.5259 45.0359C40.5259 43.8147 40.5259 42.588 40.5259 41.3201ZM31.086 39.3896C31.5106 39.4753 34.6031 39.4547 34.8454 39.3704C34.9169 38.8848 34.8911 35.9042 34.8137 35.6672C34.4142 35.6048 31.3586 35.6215 31.086 35.6926C31.086 36.9145 31.086 38.1419 31.086 39.3896ZM36.7802 35.6515C36.707 36.0677 36.7216 39.1424 36.7903 39.3951C37.2082 39.4798 40.2843 39.4547 40.5172 39.3648C40.5918 38.7589 40.5587 35.899 40.4695 35.6515C39.2486 35.6515 38.0233 35.6515 36.7802 35.6515Z" fill="#FEFAF7"/>
<path d="M38.6381 31.852C35.9197 31.852 33.2013 31.8408 30.4832 31.8593C29.7114 31.8645 29.2066 31.5327 29.2129 30.59C29.2282 28.3014 29.2177 26.0128 29.2177 23.7241C29.2177 23.7008 29.2177 23.6778 29.2177 23.6544C29.223 22.8411 29.5977 22.4625 30.419 22.4621C35.9023 22.4601 41.3851 22.4611 46.8683 22.4621C46.9837 22.4621 47.1016 22.4667 47.2145 22.4886C47.7339 22.5887 48.0205 22.9178 48.0574 23.4477C48.0616 23.5055 48.0595 23.5638 48.0595 23.622C48.0595 25.9803 48.0571 28.3387 48.062 30.697C48.063 31.122 47.9574 31.4954 47.5638 31.6969C47.3669 31.7976 47.1214 31.8443 46.8976 31.8461C45.2365 31.8579 43.5754 31.8527 41.914 31.8527C40.8221 31.852 39.7303 31.852 38.6381 31.852ZM46.1621 29.9782C46.2471 29.5909 46.2304 24.5793 46.1464 24.331C41.1359 24.331 36.1233 24.331 31.1155 24.331C31.0329 24.7302 31.049 29.7269 31.1305 29.9782C36.1417 29.9782 41.1547 29.9782 46.1621 29.9782Z" fill="#FEFAF7"/>
<path d="M33.0069 26.2471C34.2619 26.2471 35.4754 26.2471 36.7119 26.2471C36.7119 26.8509 36.7119 27.4377 36.7119 28.0249C36.4637 28.1012 33.3472 28.1117 33.0069 28.0339C33.0069 27.4503 33.0069 26.8642 33.0069 26.2471Z" fill="#FEFAF7"/>
<path d="M38.6811 26.2485C39.2846 26.2485 39.872 26.2485 40.4855 26.2485C40.4855 26.8457 40.4855 27.4321 40.4855 28.0717C39.8978 28.0979 39.3027 28.0773 38.6811 28.0839C38.6811 27.4578 38.6811 26.8628 38.6811 26.2485Z" fill="#FEFAF7"/>
<path d="M42.4346 26.2466C43.0621 26.2466 43.647 26.2466 44.2288 26.2466C44.301 26.4955 44.3174 27.6375 44.2543 28.0611C43.6728 28.0611 43.0871 28.0611 42.4593 28.0611C42.4028 27.7797 42.444 27.482 42.4367 27.1889C42.4286 26.8894 42.4346 26.5893 42.4346 26.2466Z" fill="#FEFAF7"/>
</svg>
