<svg width="61" height="61" viewBox="0 0 61 61" fill="none" xmlns="http://www.w3.org/2000/svg">
<path d="M38.9583 48.4678C38.9583 48.9399 39.0781 49.695 38.5471 50.4433C38.207 50.7772 37.8625 51.2479 36.734 51.2479H12.3511C11.9522 51.2479 11.5715 51.6039 11.2451 51.8353L2.27258 57.6837V27.2022C2.27258 26.7301 2.23852 25.609 2.69502 25.1608C3.15151 24.7126 3.25593 24.234 5.05778 24.0951H12.4418V21.5349H5.44334C4.00078 21.5349 2.6173 22.0975 1.59725 23.099C0.577206 24.1005 0.00415039 25.4589 0.00415039 26.8752V58.917C0.00684877 59.2476 0.103265 59.5709 0.282594 59.8507C0.461923 60.1305 0.717078 60.3558 1.01947 60.5012C1.31079 60.6313 1.63198 60.6834 1.95043 60.6521C2.26887 60.6208 2.57321 60.5074 2.83253 60.3232L12.1698 53.5767H36.5374C37.2245 53.5966 37.9085 53.4778 38.5471 53.2277C39.1856 52.9775 39.765 52.6013 40.2494 52.1224C40.7338 51.6434 41.1129 51.072 41.3632 50.4433C41.6135 49.8147 41.7297 49.1423 41.7046 48.4678V46.4563H38.9583V48.4678Z" fill="#FEFAF7"/>
<path d="M55.6342 24.2864V44.2383L48.8348 38.9167C48.8348 38.9167 47.3048 37.8464 46.9043 37.8452H21.7609C21.2801 37.8452 20.1518 37.5871 19.4211 36.7937C18.6817 35.9909 18.592 35.0698 18.592 34.5976L18.6939 13.1325C18.6939 12.6604 18.9947 11.7903 19.61 11.0433C20.2024 10.3238 21.2801 10.0959 21.7609 10.0959H37.1719C37.1767 8.89212 37.3475 9.04624 37.6796 7.88745H21.7609C20.3183 7.88745 18.9349 8.45009 17.9148 9.45159C16.8948 10.4531 16.3217 11.8114 16.3217 13.2277V34.5889C16.3217 36.0052 16.8948 37.3636 17.9148 38.3651C18.9349 39.3666 20.3183 39.9292 21.7609 39.9292H46.3279L54.9943 46.5334C55.252 46.7204 55.5555 46.837 55.874 46.8714C56.1924 46.9058 56.5145 46.8567 56.8074 46.7292C57.1159 46.5849 57.3767 46.358 57.5595 46.0745C57.7424 45.791 57.8399 45.4626 57.8409 45.1271V22.7869C56.7704 23.447 56.849 23.9428 55.6342 24.2864Z" fill="#FEFAF7"/>
<path d="M59.4289 10.261C59.4289 14.9291 55.5694 18.7446 50.7695 18.7446C45.9697 18.7446 42.1102 14.9291 42.1102 10.261C42.1102 5.59283 45.9697 1.77734 50.7695 1.77734C55.5694 1.77734 59.4289 5.59283 59.4289 10.261Z" stroke="#FEFAF7" stroke-width="2"/>
</svg>
