<svg width="58" height="58" viewBox="0 0 58 58" fill="none" xmlns="http://www.w3.org/2000/svg">
<path d="M44.3906 30.6408C46.5194 32.1258 48.9265 32.7074 51.361 33.3612C51.361 33.097 51.3571 32.8855 51.3618 32.6743C51.3749 32.0973 51.6949 31.777 52.2765 31.7756C53.8404 31.7717 55.4046 31.7717 56.9688 31.7756C57.5853 31.777 57.9006 32.1005 57.9017 32.7284C57.9045 34.2922 57.9028 35.8565 57.9028 37.4207C57.9028 41.5915 57.9028 45.7623 57.9028 49.9332C57.9028 50.0281 57.9042 50.1226 57.9024 50.2176C57.8903 50.8009 57.5803 51.1248 56.9994 51.1273C55.4235 51.1337 53.8475 51.1337 52.2719 51.1277C51.6693 51.1255 51.3664 50.8074 51.3625 50.1913C51.3579 49.4091 51.361 48.6274 51.361 47.8453C51.361 47.718 51.361 47.5907 51.361 47.4428C51.1719 47.4428 51.0254 47.4428 50.847 47.4428C51.1271 48.1247 51.0208 48.7881 50.8441 49.4426C50.676 50.0647 50.307 50.5414 49.731 50.8518C49.3656 51.0484 48.977 51.1365 48.5671 51.1085C48.2845 51.0893 48.004 51.0384 47.6744 50.9951C47.5383 51.3968 47.4113 51.8341 47.0839 52.1565C46.7441 52.4914 46.3331 52.7299 45.8567 52.7292C45.4162 52.7289 44.9761 52.6251 44.4969 52.5614C44.4926 52.688 44.4862 52.8369 44.483 52.9855C44.4375 55.152 43.002 56.9395 40.9329 57.3874C40.6225 57.4546 40.2994 57.492 39.9819 57.492C28.3226 57.4973 16.663 57.4973 5.00374 57.4955C2.75621 57.4952 0.846771 55.8228 0.537834 53.5931C0.515081 53.4296 0.513304 53.2625 0.513304 53.0968C0.512237 39.9327 0.51366 26.7683 0.505128 13.6042C0.504772 13.2202 0.658351 12.9582 0.912185 12.7047C3.34422 10.2773 5.77199 7.8453 8.20083 5.41469C9.65806 3.9564 11.1217 2.50415 12.5683 1.03484C12.8911 0.707059 13.2345 0.561657 13.6981 0.562012C22.3714 0.571611 31.0451 0.5709 39.7185 0.567345C41.4918 0.566634 42.8395 1.32387 43.7795 2.81309C44.2007 3.48038 44.3874 4.2241 44.3892 5.01048C44.3934 6.75211 44.3906 8.4941 44.3906 10.2357C44.3906 16.8948 44.3906 23.5541 44.3906 30.2131C44.3906 30.3674 44.3906 30.521 44.3906 30.6408ZM40.9485 53.3219C40.9201 53.3659 40.8718 53.4317 40.8327 53.5021C40.5682 53.9806 40.1611 54.2544 39.6285 54.3546C39.0355 54.4666 38.4763 54.3447 37.9274 54.1257C37.1506 53.816 36.4439 53.3794 35.7819 52.8796C34.4303 51.8589 33.0982 50.8116 31.7551 49.7799C31.032 49.2243 30.3039 48.675 29.5733 48.1297C29.4478 48.0358 29.2971 47.9764 29.1104 47.8755C29.1104 48.0714 29.1104 48.1997 29.1104 48.3277C29.1104 48.9793 29.1172 49.6313 29.108 50.2826C29.1009 50.7874 28.7908 51.0974 28.2892 51.1269C28.2302 51.1305 28.1708 51.1291 28.1115 51.1291C26.5949 51.1291 25.0779 51.1291 23.5613 51.1291C23.4902 51.1291 23.4188 51.1309 23.348 51.1245C22.9303 51.0861 22.6455 50.8219 22.5883 50.407C22.5691 50.2673 22.5751 50.1234 22.5751 49.9815C22.5744 44.2941 22.5748 38.6063 22.5748 32.9186C22.5748 32.8119 22.5705 32.7049 22.5776 32.5986C22.6117 32.0984 22.9246 31.7795 23.4244 31.777C25.036 31.7692 26.6475 31.7692 28.259 31.777C28.7788 31.7795 29.0966 32.1087 29.1083 32.6267C29.1168 33.0174 29.1104 33.4088 29.1104 33.7999C29.1104 34.0345 29.1104 34.2688 29.1104 34.5077C29.4709 34.6275 29.8023 34.721 30.1201 34.8483C30.3483 34.9396 30.5101 34.8966 30.6974 34.7423C32.4266 33.3196 34.1704 31.9146 35.8946 30.4862C36.5861 29.9134 37.3686 29.5995 38.2481 29.4954C39.3217 29.3681 40.3762 29.5011 41.421 29.7396C41.8345 29.8338 42.243 29.9504 42.7023 30.0695C42.7023 29.8775 42.7023 29.7154 42.7023 29.553C42.7023 21.4719 42.7023 13.3909 42.7019 5.30946C42.7019 5.17899 42.7058 5.04816 42.6962 4.91876C42.6379 4.13558 42.3169 3.48393 41.7111 2.97911C41.1451 2.50771 40.4789 2.35164 39.7579 2.35199C32.6958 2.35413 25.6336 2.35342 18.5717 2.35342C17.2919 2.35342 16.0124 2.35306 14.7326 2.35413C14.5954 2.35413 14.4585 2.36479 14.2903 2.3719C14.2903 2.56637 14.2903 2.71852 14.2903 2.87068C14.2903 6.2832 14.2907 9.69572 14.2896 13.1082C14.2896 13.2856 14.2893 13.4648 14.2669 13.6404C14.2118 14.0734 13.9156 14.3394 13.4791 14.3618C13.3728 14.3671 13.2658 14.3635 13.1591 14.3635C9.68721 14.3635 6.21531 14.3635 2.74377 14.3642C2.59552 14.3642 2.44727 14.3756 2.26845 14.3827C2.26845 14.6031 2.26845 14.7791 2.26845 14.9551C2.26845 27.5152 2.26845 40.0753 2.26845 52.6354C2.26845 52.742 2.25459 52.8512 2.27201 52.955C2.32818 53.292 2.34986 53.6443 2.46754 53.96C2.87175 55.0432 3.88744 55.7144 5.06346 55.7148C16.6875 55.7151 28.3116 55.7151 39.9357 55.7151C39.9951 55.7151 40.0541 55.7162 40.1135 55.7144C41.2461 55.6799 42.2245 54.8843 42.4705 53.795C42.4875 53.72 42.4851 53.6407 42.4886 53.6002C41.9653 53.5053 41.4694 53.4157 40.9485 53.3219ZM28.9586 45.9852C29.0767 46.0315 29.1851 46.0755 29.295 46.1161C29.8997 46.3393 30.4671 46.634 30.9552 47.0582C32.6645 48.5435 34.4474 49.9353 36.3084 51.2244C36.8915 51.6282 37.5069 51.9869 38.1198 52.3449C38.3416 52.4747 38.5951 52.5579 38.8432 52.6311C38.9406 52.6599 39.1298 52.6364 39.1603 52.5771C39.2229 52.4541 39.2165 52.2912 39.2186 52.1448C39.2194 52.0954 39.161 52.0445 39.1276 51.9955C38.8343 51.5646 38.54 51.1348 38.2477 50.7032C38.0753 50.4483 37.888 50.2009 37.7397 49.9321C37.4187 49.3505 37.7251 48.7294 38.3779 48.6085C38.7746 48.5349 39.0651 48.6946 39.2865 49.0177C39.7284 49.6626 40.1959 50.2912 40.6137 50.951C40.9578 51.4942 41.501 51.6204 42.0556 51.7452C42.1317 51.7622 42.2494 51.7224 42.3077 51.667C42.511 51.4729 42.5302 51.1387 42.3681 50.8991C41.9635 50.3008 41.5561 49.7038 41.1515 49.1052C41.0854 49.0074 41.0172 48.9086 40.9695 48.8012C40.699 48.1901 41.0918 47.5683 41.758 47.537C42.0983 47.521 42.3489 47.6597 42.5387 47.9366C43.0144 48.6302 43.4915 49.3228 43.9739 50.0117C44.3415 50.5368 44.8975 50.7682 45.4831 50.9417C45.5481 50.9609 45.6853 50.9304 45.7013 50.8891C45.7995 50.6371 45.9022 50.3797 45.9399 50.1152C45.958 49.9883 45.8574 49.8283 45.7764 49.706C45.3512 49.0643 44.9054 48.4361 44.4866 47.7902C44.1876 47.3294 44.2967 46.8129 44.7173 46.542C45.1702 46.2501 45.6637 46.3489 45.99 46.8011C46.4337 47.4158 46.8916 48.0212 47.3104 48.6526C47.5504 49.0145 47.8714 49.2136 48.2692 49.3316C48.9077 49.5208 49.1021 49.4066 49.2671 48.7703C49.3211 48.5623 49.2785 48.4148 49.1356 48.2587C48.7918 47.8833 48.4637 47.4933 48.1295 47.109C45.4411 44.0157 42.7524 40.9225 40.0651 37.8281C40.0111 37.7659 39.9741 37.6891 39.9176 37.6006C39.754 37.7378 39.646 37.8267 39.5404 37.9181C38.4571 38.852 37.2882 39.6504 35.954 40.1873C34.8128 40.6466 33.6364 40.8631 32.4081 40.6622C31.663 40.5403 30.9513 40.306 30.3544 39.8325C29.8712 39.4489 29.461 38.9856 29.1364 38.4535C29.0987 38.3919 29.0433 38.3415 28.9583 38.2412C28.9586 40.8613 28.9586 43.416 28.9586 45.9852ZM51.2572 45.7051C51.2572 42.1941 51.2572 38.7283 51.2572 35.2368C51.1033 35.192 50.9572 35.1511 50.8121 35.1074C49.4861 34.7078 48.1558 34.3224 46.8361 33.9022C45.9673 33.6257 45.1194 33.2869 44.3248 32.8297C44.1197 32.7116 43.9249 32.5734 43.7116 32.4735C42.7542 32.0252 41.7591 31.6807 40.7281 31.446C40.0573 31.2932 39.38 31.1819 38.6879 31.2054C37.9946 31.2292 37.365 31.4084 36.8275 31.884C36.3312 32.3234 35.8036 32.7273 35.2888 33.1457C33.8085 34.3477 32.3289 35.5514 30.845 36.7495C30.492 37.0346 30.4454 37.2003 30.6928 37.5921C31.0999 38.2369 31.6531 38.6892 32.4071 38.8833C33.2269 39.0941 34.0296 39.0198 34.8224 38.7667C36.2029 38.3262 37.3874 37.5519 38.434 36.5678C38.9708 36.063 39.5781 35.8316 40.3054 35.8885C40.6865 35.9183 41.0225 36.0307 41.2603 36.3556C41.3439 36.4697 41.448 36.5689 41.5405 36.677C43.8438 39.3675 46.1468 42.0587 48.4505 44.7488C48.8266 45.1882 49.2074 45.6233 49.597 46.0734C50.1104 45.7716 50.6504 45.6717 51.2572 45.7051ZM27.3098 49.3309C27.3098 44.0577 27.3098 38.8289 27.3098 33.5798C26.3215 33.5798 25.358 33.5798 24.3996 33.5798C24.3207 33.9872 24.3367 49.0646 24.4149 49.3309C25.3666 49.3309 26.3222 49.3309 27.3098 49.3309ZM53.1909 33.5787C53.113 33.9723 53.1269 49.0583 53.2001 49.3167C53.6612 49.3853 55.8451 49.3619 56.0971 49.2833C56.0971 44.058 56.0971 38.8299 56.0971 33.5787C55.1202 33.5787 54.166 33.5787 53.1909 33.5787ZM12.4929 3.75518C9.55212 6.68954 6.60246 9.63244 3.66738 12.5611C3.90166 12.6215 12.148 12.629 12.4929 12.5551C12.4929 9.60968 12.4929 6.66075 12.4929 3.75518Z" fill="#FEFAF7"/>
<path d="M22.4982 20.3839C17.1783 20.3839 11.8585 20.3839 6.53867 20.3836C6.39647 20.3836 6.25284 20.391 6.11277 20.3736C5.69789 20.3221 5.38824 19.9782 5.36051 19.5527C5.33207 19.115 5.55924 18.7627 5.94959 18.6475C6.02816 18.6244 6.11241 18.6162 6.19454 18.6119C6.31257 18.6055 6.43131 18.6087 6.55005 18.6087C17.178 18.6087 27.8059 18.6087 38.4339 18.6091C38.5761 18.6091 38.719 18.6041 38.8601 18.6176C39.3269 18.662 39.6166 18.9959 39.6209 19.4844C39.6255 19.9889 39.329 20.3349 38.8488 20.3786C38.7311 20.3893 38.612 20.3839 38.4936 20.3839C33.1617 20.3839 27.8301 20.3839 22.4982 20.3839Z" fill="#FEFAF7"/>
<path d="M22.5013 24.6207C27.8222 24.6207 33.1427 24.6207 38.4636 24.6211C38.6058 24.6211 38.7491 24.6157 38.8895 24.6324C39.3389 24.6858 39.6155 25.0146 39.6212 25.4884C39.6268 25.9673 39.3648 26.3036 38.9204 26.3722C38.7807 26.3939 38.6371 26.3935 38.4949 26.3935C27.8296 26.3942 17.1643 26.3942 6.49907 26.3935C6.36896 26.3935 6.23777 26.3928 6.10872 26.3779C5.62594 26.321 5.34331 25.9737 5.35967 25.4664C5.37531 24.9801 5.66896 24.6634 6.14783 24.6253C6.27759 24.615 6.40842 24.6207 6.53853 24.6207C11.8598 24.6207 17.1803 24.6207 22.5013 24.6207Z" fill="#FEFAF7"/>
<path d="M29.353 12.6048C32.3866 12.6048 35.4202 12.6048 38.4541 12.6048C38.5607 12.6048 38.6674 12.603 38.774 12.6059C39.1075 12.6148 39.378 12.7421 39.5245 13.0532C39.6813 13.3867 39.6692 13.7223 39.4602 14.0342C39.3354 14.2201 39.1512 14.3254 38.9283 14.3542C38.8465 14.3648 38.7626 14.3634 38.6798 14.3634C32.4705 14.3638 26.2608 14.3623 20.0515 14.3677C19.718 14.368 19.4482 14.2731 19.2406 14.0135C19.0109 13.7259 18.9821 13.4091 19.1272 13.0781C19.2658 12.7616 19.5275 12.6237 19.8613 12.6069C19.9676 12.6016 20.0746 12.6052 20.1812 12.6052C23.2383 12.6048 26.2957 12.6048 29.353 12.6048Z" fill="#FEFAF7"/>
<path d="M29.3593 6.59423C32.379 6.59423 35.3987 6.59423 38.4184 6.59423C38.5251 6.59423 38.6317 6.59174 38.738 6.59494C39.2866 6.612 39.6104 6.9269 39.6211 7.45151C39.6321 7.99887 39.315 8.33724 38.7583 8.36816C38.652 8.3742 38.5453 8.37065 38.4387 8.37065C32.3758 8.37065 26.3126 8.37065 20.2498 8.37065C20.1314 8.37065 20.0123 8.37633 19.8946 8.36496C19.4143 8.31947 19.0282 7.89615 19.0403 7.43517C19.0538 6.93082 19.4015 6.59849 19.9451 6.596C21.2359 6.59032 22.5264 6.59387 23.8173 6.59387C25.6645 6.59423 27.5117 6.59423 29.3593 6.59423Z" fill="#FEFAF7"/>
<path d="M13.0711 42.6481C15.3343 42.6481 17.5974 42.6513 19.8606 42.6445C20.1756 42.6435 20.4443 42.7135 20.6594 42.9511C20.9154 43.2337 20.9805 43.5563 20.8361 43.9065C20.701 44.2347 20.4333 44.3908 20.0853 44.4143C19.9911 44.4207 19.8958 44.4168 19.8009 44.4168C15.3456 44.4168 10.8904 44.4168 6.43516 44.4168C6.37579 44.4168 6.31677 44.4179 6.2574 44.4164C5.60931 44.4001 5.23674 43.9197 5.3825 43.2885C5.46284 42.9404 5.71454 42.7043 6.06863 42.6595C6.19732 42.6431 6.32886 42.6485 6.45898 42.6485C8.66313 42.6481 10.8669 42.6481 13.0711 42.6481Z" fill="#FEFAF7"/>
<path d="M13.1036 50.4296C10.9015 50.4296 8.69951 50.43 6.49748 50.4285C6.34426 50.4285 6.18819 50.4285 6.03816 50.4019C5.61653 50.3262 5.37158 50.0194 5.3595 49.5736C5.3467 49.1061 5.57885 48.777 6.00439 48.6813C6.14126 48.6504 6.2856 48.6426 6.42674 48.6426C10.8898 48.6408 15.3532 48.6422 19.8163 48.6387C20.154 48.6383 20.4491 48.7147 20.6759 48.9767C20.9141 49.2519 20.9749 49.5647 20.8416 49.9031C20.7168 50.2195 20.4701 50.3848 20.1355 50.4172C20.0065 50.4296 19.8757 50.4292 19.7455 50.4292C17.5314 50.43 15.3173 50.4296 13.1036 50.4296Z" fill="#FEFAF7"/>
<path d="M13.1396 38.4125C10.9237 38.4125 8.70778 38.4129 6.49189 38.4118C6.35005 38.4118 6.20642 38.4125 6.0667 38.3915C5.63085 38.3251 5.36813 38.0065 5.35924 37.5493C5.35 37.0648 5.59815 36.7391 6.04822 36.6563C6.15203 36.6371 6.2601 36.6328 6.36604 36.6328C10.8572 36.6318 15.3483 36.6314 19.8395 36.6325C20.3742 36.6325 20.7236 36.8604 20.8626 37.2884C21.0262 37.7914 20.7315 38.2977 20.2124 38.3894C20.0738 38.4139 19.9294 38.4118 19.7876 38.4118C17.5717 38.4129 15.3554 38.4125 13.1396 38.4125Z" fill="#FEFAF7"/>
<path d="M13.1221 32.4024C10.9201 32.4024 8.71808 32.4024 6.51641 32.4024C6.42184 32.4024 6.32692 32.4049 6.23236 32.4017C5.69305 32.3832 5.36954 32.0603 5.35923 31.5323C5.34927 31.0032 5.65714 30.6679 6.19432 30.6277C6.30026 30.6199 6.40727 30.621 6.51356 30.621C10.9176 30.6206 15.3213 30.6206 19.7254 30.621C19.8199 30.621 19.9152 30.6178 20.0094 30.6238C20.5043 30.6565 20.9209 31.0857 20.9103 31.5487C20.8985 32.066 20.5416 32.4003 19.9763 32.401C17.6915 32.4042 15.407 32.4024 13.1221 32.4024Z" fill="#FEFAF7"/>
</svg>
