<svg width="69" height="60" viewBox="0 0 69 60" fill="none" xmlns="http://www.w3.org/2000/svg">
<path d="M0.0715332 58.1875C0.0715332 53.0016 0.0715332 47.879 0.0715332 42.7006C3.38088 42.7006 6.67379 42.7006 10.016 42.7006C10.016 28.6634 10.016 14.6813 10.016 0.660096C10.2562 0.650824 10.4484 0.636497 10.6405 0.636497C18.7173 0.635232 26.7941 0.635654 34.8708 0.635654C38.7617 0.635654 42.6526 0.639868 46.5435 0.628911C46.8828 0.628069 47.1129 0.730893 47.34 0.981634C51.0547 5.08366 54.7766 9.17937 58.504 13.27C58.6852 13.4689 58.7177 13.6746 58.7177 13.9198C58.7143 17.0522 58.7156 20.1846 58.7152 23.3169C58.7152 23.4813 58.7152 23.6456 58.7152 23.8424C58.9179 23.8542 59.0683 23.8677 59.2187 23.8707C60.8058 23.8997 62.3928 23.9305 63.9799 23.9511C64.226 23.9545 64.4485 23.9971 64.6642 24.1168C65.1429 24.3823 65.6457 24.6081 66.1054 24.9014C67.2934 25.6591 68.0819 26.7586 68.4514 28.0907C68.7502 29.1678 68.7245 30.2816 68.2462 31.3469C67.6478 32.6794 66.7245 33.6862 65.4169 34.3499C64.3869 34.8725 64.3933 34.883 63.2209 34.9016C61.8867 34.9226 60.5525 34.9471 59.2183 34.9719C59.0679 34.9749 58.9179 34.9892 58.7211 35.001C58.7211 46.4175 58.5999 42.6956 58.5999 54.0653C58.5999 54.0653 56.5497 54.0395 53.1998 54.0653C53.1998 54.0653 51.6091 57.936 49.0383 58.1875C49.0383 58.1875 10.3275 58.2521 10.0333 58.1888C10.0333 54.552 10.0333 61.909 10.0333 58.2065C9.45342 58.169 8.91064 58.1934 8.36997 58.1888C7.82213 58.1842 7.2743 58.188 6.72646 58.188C6.16472 58.188 5.60256 58.188 5.04082 58.188C4.49298 58.188 3.94515 58.188 3.39731 58.188C2.84948 58.188 2.30164 58.188 1.75381 58.188C1.20808 58.1875 0.662773 58.1875 0.0715332 58.1875ZM53.1521 58.1875C52.064 58.1875 51.0134 58.1875 49.9629 58.1875C48.9237 58.1875 47.884 58.1875 46.8448 58.1875C45.7913 58.1875 44.7378 58.1875 43.6842 58.1875C42.6446 58.1875 41.6054 58.1875 40.5658 58.1875C39.5123 58.1875 38.4587 58.1875 37.4052 58.1875C36.3517 58.1875 35.2982 58.1875 34.2446 58.1875C33.205 58.1875 32.1658 58.1875 31.1262 58.1875C30.0727 58.1875 29.0191 58.1875 27.9656 58.1875C26.9121 58.1875 25.8585 58.1875 24.805 58.1875C23.7654 58.1875 22.7262 58.1875 21.6866 58.1875C20.633 58.1875 19.5795 58.1875 18.526 58.1875C17.4864 58.1875 16.4472 58.1829 15.4075 58.1888C14.3608 58.1947 13.3131 58.1635 12.2529 58.2082C12.2529 61.1686 12.2529 53.0139 12.2529 55.9515C24.532 55.9515 38.7078 56.6614 50.9713 55.9515C52.3522 55.8716 51.8188 51.6106 53.1998 51.6106C54.2889 51.6106 55.3783 51.6106 56.4682 51.6106C56.4682 40.9181 56.4758 45.6627 56.4758 34.9513C56.2524 34.9513 56.0586 34.9513 55.8647 34.9513C47.549 34.9513 39.2333 34.9513 30.9176 34.9513C29.1477 34.9513 27.3777 34.9454 25.6078 34.9568C25.2968 34.9589 25.0418 34.8792 24.7873 34.7039C24.0591 34.2016 23.3166 33.7199 22.5816 33.2273C20.8551 32.0701 19.1294 30.912 17.4046 29.7523C17.2596 29.655 17.1248 29.5433 16.9516 29.4135C17.1547 29.2668 17.2984 29.156 17.4493 29.0549C19.8762 27.4291 22.3069 25.8087 24.7271 24.1737C25.0338 23.9663 25.3351 23.8808 25.703 23.8812C35.7744 23.8888 45.8461 23.8875 55.9174 23.8875C56.0961 23.8875 56.2752 23.8875 56.4433 23.8875C56.5373 23.4341 56.5255 15.375 56.4319 15.0286C55.9229 15.0286 55.4045 15.0286 54.8862 15.0286C54.3523 15.0286 53.8188 15.0286 53.2848 15.0286C52.7652 15.0286 52.2452 15.0286 51.7256 15.0286C51.206 15.0286 50.686 15.0286 50.1664 15.0286C49.6468 15.0286 49.1268 15.0286 48.6072 15.0286C48.0732 15.0286 47.5397 15.0341 47.0058 15.0269C46.4934 15.0202 45.9788 15.0581 45.4339 14.9982C45.4339 14.3838 45.4339 13.8103 45.4339 13.2363C45.4339 12.6602 45.4339 12.0846 45.4339 11.5085C45.4339 10.9324 45.4339 10.3568 45.4339 9.78073C45.4339 9.20466 45.4348 8.62901 45.4348 8.05294C45.4348 7.47687 45.4348 6.90122 45.4348 6.32515C45.4348 5.74907 45.4382 5.17343 45.4339 4.59735C45.4297 4.02803 45.4542 3.45701 45.4175 2.89822C44.7487 2.81014 12.5655 2.84175 12.2512 2.92772C12.2512 16.1626 12.2512 29.4017 12.2512 42.6994C19.0835 42.6994 25.8914 42.6994 32.6993 42.6994C39.5081 42.6994 46.3168 42.6994 53.1508 42.6994C53.1519 47.1304 53.1998 47.1807 53.1998 51.6106C53.1998 52.3147 53.1998 53.359 53.1998 54.0653C53.1998 54.0653 53.1521 58.1474 53.1521 58.1875ZM2.29785 44.9358C2.29785 48.6379 2.29785 52.2831 2.29785 55.9515C18.5247 55.9515 34.7238 55.9515 50.9713 55.9515C50.9511 54.4193 50.9835 52.9178 50.8563 51.4129C50.7724 51.4749 50.7319 51.5431 50.6902 51.6106C50.2637 52.3021 49.7222 52.8862 49.0383 53.327C48.1204 53.9186 47.1883 53.9195 46.2658 53.335C45.6649 52.954 45.1668 52.4606 44.7808 51.863C44.168 50.9152 44.1739 49.9599 44.7909 49.0168C45.1722 48.4335 45.659 47.9476 46.2464 47.5726C47.1811 46.9759 48.1268 46.975 49.0568 47.581C49.7252 48.0168 50.2591 48.5903 50.6801 49.2679C50.7277 49.3442 50.7753 49.4209 50.8225 49.4972C50.9797 47.9742 50.9536 46.4693 50.9696 44.9131C50.1862 44.9131 49.4597 44.9131 48.7328 44.9131C48.0025 44.9131 47.2717 44.9131 46.5414 44.9131C45.7968 44.9131 45.0526 44.9084 44.3079 44.9143C43.5856 44.9198 42.8612 44.8886 42.1111 44.935C42.1111 45.5957 42.1111 46.1984 42.1111 46.8006C42.1111 47.4044 42.1124 48.0088 42.1107 48.6126C42.1094 49.2115 42.1179 49.8107 42.1044 50.4159C41.3479 50.4159 40.6526 50.4159 39.9029 50.4159C39.9029 50.2393 39.9029 50.0888 39.9029 49.9384C39.9029 48.4352 39.9038 46.9325 39.9017 45.4293C39.9012 45.2683 39.8831 45.1073 39.873 44.9392C39.1263 44.9392 38.4301 44.9392 37.6808 44.9392C37.6808 46.0378 37.6808 47.1116 37.6808 48.2283C36.9214 48.2317 36.2156 48.2367 35.4832 48.2254C35.4503 47.093 35.5 46.018 35.4537 44.9396C34.7061 44.9396 34.0099 44.9396 33.2594 44.9396C33.2594 46.0382 33.2594 47.1111 33.2594 48.2005C32.4975 48.2005 31.7908 48.2005 31.0465 48.2005C31.0465 47.8065 31.0465 47.4432 31.0465 47.0795C31.0465 46.7285 31.0558 46.377 31.044 46.026C31.0322 45.6674 31.0975 45.3033 30.9918 44.9152C30.2728 44.9261 29.5661 44.8768 28.8257 44.9501C28.8257 45.8899 28.8261 46.7862 28.8257 47.683C28.8249 48.5903 28.8295 49.4972 28.8228 50.4163C28.0646 50.4163 27.3697 50.4163 26.6318 50.4163C26.6011 48.5756 26.6441 46.7597 26.6078 44.9404C25.851 44.9404 25.1552 44.9404 24.4064 44.9404C24.4064 46.0403 24.4064 47.1137 24.4064 48.2287C23.6461 48.2321 22.9394 48.2342 22.2066 48.2279C22.1733 47.0943 22.2213 46.0197 22.1784 44.94C21.4223 44.94 20.7266 44.94 19.9756 44.94C19.9756 46.0386 19.9756 47.112 19.9756 48.2178C19.2141 48.2409 18.5083 48.2313 17.7519 48.2283C17.7519 47.0926 17.7519 46.0184 17.7519 44.9531C17.0923 44.8671 15.861 44.8958 15.5529 45.0062C15.5529 45.4436 15.5529 45.8916 15.5529 46.34C15.5529 46.7896 15.5529 47.2388 15.5529 47.6885C15.5529 48.152 15.5546 48.6156 15.5525 49.0791C15.5504 49.5225 15.5449 49.9658 15.5407 50.4175C14.7847 50.4175 14.0885 50.4175 13.343 50.4175C13.343 49.9464 13.343 49.5001 13.343 49.0539C13.343 48.5903 13.343 48.1267 13.343 47.6632C13.343 47.2135 13.3477 46.7643 13.3418 46.3147C13.3359 45.8587 13.3696 45.3998 13.3194 44.9569C12.6587 44.8663 11.4315 44.8945 11.11 45.0133C11.11 46.0593 11.11 47.1208 11.11 48.1735C10.6393 48.2612 9.26294 48.2498 8.91528 48.1529C8.91528 47.801 8.91528 47.4382 8.91528 47.0753C8.91528 46.7243 8.92118 46.3728 8.91359 46.0218C8.906 45.6632 8.94772 45.3003 8.88367 44.9388C8.14451 44.9388 7.44876 44.9388 6.70202 44.9388C6.70202 46.0378 6.70202 47.1116 6.70202 48.2022C5.94306 48.2022 5.23635 48.2022 4.47444 48.2022C4.47444 47.1019 4.47444 46.0285 4.47444 44.935C3.72306 44.9358 3.02731 44.9358 2.29785 44.9358ZM26.6339 28.2555C27.1257 28.3524 56.1631 28.3338 56.4682 28.2453C56.5453 27.7241 56.5238 26.4147 56.4294 26.1151C56.3662 26.1079 56.2975 26.0936 56.2292 26.0936C46.4285 26.0936 36.6281 26.0945 26.8274 26.0966C26.7865 26.0966 26.7456 26.1117 26.7056 26.1223C26.6929 26.1256 26.682 26.1374 26.6719 26.1471C26.6622 26.1564 26.6546 26.1678 26.6339 26.1926C26.6339 26.8635 26.6339 27.5492 26.6339 28.2555ZM26.647 32.679C27.1245 32.7743 56.1639 32.754 56.4804 32.6605C56.4804 31.9681 56.4804 31.2724 56.4804 30.5825C55.9983 30.4885 26.9538 30.5096 26.647 30.6015C26.647 31.2947 26.647 31.9896 26.647 32.679ZM55.102 12.7985C54.941 12.613 54.8436 12.4963 54.7412 12.3834C53.922 11.4786 53.1032 10.573 52.2815 9.67032C50.8836 8.13469 49.4837 6.60075 48.0825 5.06807C47.9957 4.97283 47.9317 4.82787 47.7644 4.84051C47.6333 5.28257 47.584 12.2814 47.7091 12.7985C50.1373 12.7985 52.5706 12.7985 55.102 12.7985ZM63.1653 32.6837C64.1189 32.8594 65.408 32.1839 65.9769 31.2273C66.6874 30.0334 66.6027 28.3494 65.7772 27.338C65.1037 26.5129 64.2702 26.0405 63.1653 26.1231C63.1653 28.3444 63.1653 30.5163 63.1653 32.6837ZM60.8837 32.7106C60.9701 32.1185 60.9436 26.4303 60.8551 26.1176C60.1627 26.1176 59.4669 26.1176 58.7447 26.1176C58.7447 28.3241 58.7447 30.5045 58.7447 32.7106C59.4686 32.7106 60.1644 32.7106 60.8837 32.7106ZM24.3318 27.172C23.8703 27.3182 21.2588 29.1097 21.0355 29.4472C22.0844 30.2787 23.2129 30.9938 24.3575 31.7262C24.4506 31.1594 24.4224 27.4969 24.3318 27.172ZM47.6615 51.544C48.3859 51.5393 48.7517 51.1744 48.7547 50.4542C48.7576 49.7155 48.3783 49.3383 47.6371 49.3438C46.9144 49.3488 46.5498 49.7138 46.5461 50.4365C46.5427 51.179 46.9148 51.549 47.6615 51.544Z" fill="#FEFAF7"/>
<path d="M42.091 17.245C42.091 17.9993 42.091 18.695 42.091 19.3878C41.7556 19.4797 15.993 19.4894 15.5813 19.3958C15.5813 18.7178 15.5813 18.0334 15.5813 17.312C15.6576 17.2917 15.7435 17.2572 15.832 17.2488C15.9572 17.237 16.0845 17.245 16.2109 17.245C24.6379 17.245 33.0644 17.245 41.4914 17.245C41.684 17.245 41.8765 17.245 42.091 17.245Z" fill="#FEFAF7"/>
<path d="M42.0446 8.35693C33.2341 8.35693 24.422 8.35693 15.5858 8.35693C15.5757 8.22334 15.5605 8.11503 15.5601 8.0063C15.5576 7.41881 15.5589 6.83133 15.5589 6.25565C15.9036 6.16293 41.2688 6.12584 42.0336 6.20634C42.1419 6.51019 42.1508 7.9886 42.0446 8.35693Z" fill="#FEFAF7"/>
<path d="M42.0881 11.777C42.0881 12.4659 42.0881 13.1607 42.0881 13.8518C41.7564 13.944 16.017 13.9562 15.5889 13.8631C15.5792 13.7759 15.5598 13.6811 15.5594 13.5867C15.5564 12.9859 15.5581 12.3846 15.5581 11.7947C15.9172 11.6999 41.654 11.6876 42.0881 11.777Z" fill="#FEFAF7"/>
</svg>
