<svg width="58" height="58" viewBox="0 0 58 58" fill="none" xmlns="http://www.w3.org/2000/svg">
<mask id="path-1-inside-1" fill="white">
<path d="M6.4389 0.324043C6.43522 0.342445 6.36161 0.397655 6.28063 0.452869C6.0561 0.60746 0.92509 5.75687 0.92509 5.83049C0.92509 5.8673 0.899325 5.90411 0.869878 5.91515C0.82939 5.93355 0.814667 6.00349 0.814667 6.20961C0.814667 6.36052 0.82939 6.48199 0.847794 6.48199C0.866198 6.48199 0.899325 6.5372 0.92509 6.59977C0.954536 6.67339 1.43672 7.18502 2.12871 7.88069L3.28079 9.04382L2.17288 10.1444C1.49929 10.818 1.02815 11.3185 0.96926 11.4216C0.914048 11.521 0.858836 11.5983 0.844113 11.5983C0.825709 11.5983 0.814667 11.7234 0.814667 11.8743C0.814667 12.0252 0.82939 12.1504 0.847794 12.1504C0.866198 12.1504 0.895644 12.1872 0.910367 12.2314C0.921409 12.2792 1.45512 12.8387 2.08822 13.4755C2.72499 14.1159 3.24398 14.6607 3.24398 14.6901C3.24398 14.7196 2.72499 15.2643 2.08822 15.9048C1.33366 16.6667 0.928771 17.0974 0.910367 17.1636C0.899325 17.2225 0.869878 17.2667 0.851475 17.2667C0.82939 17.2667 0.814667 17.3808 0.814667 17.5243C0.814667 17.6679 0.82939 17.782 0.851475 17.782C0.869878 17.782 0.899325 17.8262 0.910367 17.8814C0.928771 17.9513 1.33366 18.382 2.08822 19.1439C2.72499 19.7843 3.24398 20.3291 3.24398 20.3585C3.24398 20.388 2.72499 20.9327 2.08822 21.5732C1.45512 22.21 0.921409 22.7695 0.910367 22.8136C0.895644 22.8615 0.866198 22.8983 0.847794 22.8983C0.82939 22.8983 0.814667 23.0234 0.814667 23.1743C0.814667 23.3253 0.825709 23.4504 0.844113 23.4504C0.858836 23.4504 0.914048 23.5277 0.96926 23.6271C1.02815 23.7301 1.49929 24.2307 2.17288 24.9043L3.28079 26.0049L2.12871 27.168C1.43672 27.8637 0.954536 28.3753 0.92509 28.4452C0.899325 28.5115 0.866198 28.5667 0.847794 28.5667C0.82939 28.5667 0.814667 28.6918 0.814667 28.8427C0.814667 28.9937 0.82939 29.1188 0.847794 29.1188C0.866198 29.1188 0.895644 29.1556 0.910367 29.1998C0.921409 29.2476 1.45512 29.8071 2.08822 30.4439C2.72499 31.0843 3.24398 31.6291 3.24398 31.6585C3.24398 31.688 2.72499 32.2327 2.08822 32.8732C1.33366 33.6278 0.921409 34.0695 0.906686 34.132C0.891963 34.1909 0.866198 34.2351 0.847794 34.2351C0.82939 34.2351 0.814667 34.3492 0.814667 34.4927C0.814667 34.6326 0.82939 34.7504 0.847794 34.7504C0.866198 34.7504 0.903006 34.8056 0.928771 34.8682C0.976621 34.9896 5.9604 40.0102 6.23278 40.2127C6.4389 40.3673 6.69656 40.4225 6.92109 40.3636C7.02415 40.3378 7.15298 40.2826 7.20819 40.2421C7.2634 40.2016 7.79343 39.6826 8.37868 39.0937C8.9676 38.5048 9.47555 38.0042 9.51604 37.9821C9.57493 37.949 9.75161 38.111 10.8853 39.2446C11.603 39.9624 12.1883 40.5624 12.1883 40.5844C12.1883 40.6065 11.7061 41.1034 11.1172 41.6887C10.5319 42.2776 10.0019 42.826 9.93933 42.9144C9.74425 43.2015 9.7148 43.4923 9.85467 43.7941C9.94301 43.9855 15.2028 49.249 15.4163 49.3557C15.6445 49.4735 15.8323 49.4919 16.0605 49.4183C16.2408 49.3594 16.3512 49.2564 17.4408 48.1742L18.6297 46.9927L19.4394 47.7988C19.8848 48.2441 20.2492 48.6233 20.2492 48.6417C20.2492 48.6601 19.7228 49.2085 19.075 49.8563C17.9377 51.0011 17.9009 51.0452 17.842 51.2513C17.7868 51.4427 17.7868 51.4796 17.8383 51.6526C17.8677 51.7556 17.9377 51.8992 17.9929 51.9728C18.1953 52.2452 23.2122 57.2253 23.3337 57.2731C23.3963 57.3025 23.4515 57.3357 23.4515 57.3541C23.4515 57.3725 23.5693 57.3872 23.7091 57.3872C23.8527 57.3872 23.9668 57.3725 23.9668 57.3541C23.9668 57.3357 24.011 57.3099 24.0699 57.2952C24.1324 57.2805 24.5741 56.8682 25.3287 56.1137C25.9691 55.4769 26.5139 54.9579 26.5433 54.9579C26.5728 54.9579 27.1175 55.4769 27.758 56.1137C28.3948 56.7468 28.9543 57.2805 29.0021 57.2915C29.0463 57.3062 29.0831 57.3357 29.0831 57.3541C29.0831 57.3725 29.2082 57.3872 29.3591 57.3872C29.51 57.3872 29.6352 57.3725 29.6352 57.3541C29.6352 57.3357 29.6904 57.3025 29.7567 57.2768C29.8266 57.2473 30.3382 56.7652 31.0339 56.0732L32.197 54.9211L33.2976 56.029C33.9712 56.7026 34.4717 57.1737 34.5748 57.2326C34.6742 57.2878 34.7515 57.343 34.7515 57.3578C34.7515 57.3762 34.8766 57.3872 35.0275 57.3872C35.1785 57.3872 35.3036 57.3725 35.3036 57.3541C35.3036 57.3357 35.3404 57.3062 35.3883 57.2915C35.4324 57.2805 35.9919 56.7468 36.6287 56.1137C37.2691 55.4769 37.8139 54.9579 37.8433 54.9579C37.8728 54.9579 38.4175 55.4769 39.058 56.1137C39.8052 56.8609 40.2543 57.2805 40.3205 57.2952C40.3757 57.3099 40.4199 57.3357 40.4199 57.3541C40.4199 57.3725 40.5377 57.3872 40.6775 57.3872C40.8211 57.3872 40.9352 57.3725 40.9352 57.3504C40.9352 57.332 40.9794 57.3025 41.0383 57.2915C41.1045 57.2731 41.5352 56.8682 42.2971 56.1137C42.9375 55.4769 43.4823 54.9579 43.5117 54.9579C43.5412 54.9579 44.0859 55.4769 44.7264 56.1137C45.3632 56.7468 45.9227 57.2805 45.9705 57.2915C46.0147 57.3062 46.0515 57.3357 46.0515 57.3541C46.0515 57.3725 46.1766 57.3872 46.3275 57.3872C46.4785 57.3872 46.6036 57.3762 46.6036 57.3578C46.6036 57.343 46.6809 57.2878 46.7803 57.2326C46.8833 57.1737 47.3839 56.7026 48.0575 56.029L49.1581 54.9211L50.3212 56.0732C51.0169 56.7652 51.5285 57.2473 51.6021 57.2768C51.6647 57.3025 51.7199 57.3357 51.7199 57.3541C51.7199 57.3725 51.8414 57.3872 51.9923 57.3872C52.1984 57.3872 52.2683 57.3725 52.2867 57.332C52.2978 57.3025 52.3346 57.2768 52.3714 57.2768C52.4524 57.2768 57.6239 52.1163 57.7453 51.9102C57.7969 51.8255 57.8521 51.7556 57.8705 51.7556C57.8889 51.7556 57.9036 51.6305 57.9036 51.4796C57.9036 51.3286 57.8889 51.2035 57.8705 51.2035C57.8521 51.2035 57.8189 51.1483 57.7932 51.082C57.7637 51.0121 57.2816 50.4968 56.5859 49.8011L55.4301 48.6343L56.5307 47.5338C57.1343 46.9301 57.6791 46.3596 57.738 46.2712C57.8005 46.1792 57.8594 46.1019 57.8778 46.0946C57.9146 46.0762 57.911 45.5351 57.8705 45.5351C57.8521 45.5351 57.8226 45.4983 57.8079 45.4504C57.7969 45.4063 57.2631 44.8468 56.6301 44.21C55.9933 43.5696 55.4743 43.0248 55.4743 42.9954C55.4743 42.9659 55.9859 42.4285 56.608 41.7991C57.2889 41.1182 57.7637 40.6102 57.7932 40.5366C57.8189 40.474 57.8521 40.4188 57.8705 40.4188C57.8889 40.4188 57.9036 40.301 57.9036 40.1611C57.9036 40.0176 57.8889 39.9035 57.8668 39.9035C57.8484 39.9035 57.8189 39.8593 57.8079 39.8004C57.7895 39.7342 57.3846 39.3035 56.6301 38.5416C55.9933 37.9011 55.4743 37.3564 55.4743 37.3269C55.4743 37.2975 55.9933 36.7527 56.6301 36.1123C57.2631 35.4755 57.7969 34.916 57.8079 34.8682C57.8226 34.824 57.8521 34.7872 57.8705 34.7872C57.8889 34.7872 57.9036 34.6621 57.9036 34.5111C57.9036 34.3602 57.8926 34.2351 57.8778 34.2351C57.8594 34.2351 57.8042 34.1578 57.749 34.0584C57.6901 33.9554 57.2116 33.4511 56.5454 32.7812L55.4375 31.6769L56.5896 30.5175C57.2816 29.8218 57.7637 29.3102 57.7932 29.2366C57.8189 29.174 57.8521 29.1188 57.8705 29.1188C57.8889 29.1188 57.9036 28.9937 57.9036 28.8427C57.9036 28.6918 57.8889 28.5667 57.8705 28.5667C57.8521 28.5667 57.8226 28.5299 57.8079 28.482C57.7969 28.4379 57.2631 27.8784 56.6301 27.2416C55.9933 26.6011 55.4743 26.0564 55.4743 26.0269C55.4743 25.9975 55.9933 25.4527 56.6301 24.8123C57.3846 24.0577 57.7969 23.616 57.8116 23.5498C57.8263 23.4946 57.8521 23.4504 57.8705 23.4504C57.8889 23.4504 57.9036 23.3326 57.9036 23.1927C57.9036 23.0492 57.8889 22.9351 57.8705 22.9351C57.8521 22.9351 57.8153 22.8799 57.7895 22.8136C57.7416 22.6958 52.7579 17.6753 52.4855 17.4728C52.353 17.3734 52.0107 17.2593 51.9297 17.2851C51.9039 17.2924 51.8119 17.3182 51.7199 17.3403C51.5727 17.3808 51.4365 17.5023 50.3727 18.5586C49.7249 19.2028 49.1875 19.7328 49.1765 19.7328C49.147 19.7328 47.579 18.1538 47.5643 18.1096C47.5569 18.0875 48.0649 17.5538 48.6943 16.9207C49.8979 15.7171 49.9862 15.6066 49.9899 15.2975C49.9899 14.9404 49.9899 14.9404 47.2036 12.1541C45.7681 10.7222 44.5313 9.50023 44.4467 9.43398C44.1375 9.19473 43.7694 9.19104 43.4345 9.42293C43.3461 9.48183 42.794 10.0155 42.2051 10.6008C41.6198 11.1897 41.1229 11.6719 41.1008 11.6719C41.053 11.6719 38.4691 9.08798 38.4691 9.04382C38.4691 9.02173 38.9954 8.47697 39.6432 7.82915C40.7806 6.68443 40.8174 6.64026 40.8763 6.43414C40.9315 6.24274 40.9315 6.20593 40.88 6.03293C40.8505 5.92987 40.7806 5.78632 40.7254 5.71271C40.5266 5.44401 35.506 0.460228 35.3883 0.412376C35.322 0.386612 35.2668 0.349804 35.2668 0.331402C35.2668 0.312996 35.1416 0.298275 34.9907 0.298275C34.8398 0.298275 34.7147 0.312996 34.7147 0.331402C34.7147 0.349804 34.6779 0.37925 34.6337 0.393974C34.5858 0.405018 34.0264 0.938728 33.3896 1.57182C32.7491 2.2086 32.2044 2.72759 32.1749 2.72759C32.1455 2.72759 31.6007 2.2086 30.9603 1.57182C30.3235 0.938728 29.764 0.405018 29.7199 0.393974C29.672 0.37925 29.6352 0.349804 29.6352 0.331402C29.6352 0.312996 29.51 0.298275 29.3591 0.298275C29.2082 0.298275 29.0831 0.312996 29.0831 0.331402C29.0831 0.349804 29.0279 0.382931 28.9653 0.408695C28.8917 0.438145 28.38 0.920326 27.6844 1.61232L26.5213 2.7644L25.4207 1.65648C24.7471 0.982899 24.2465 0.511761 24.1435 0.452869C24.0441 0.397655 23.9668 0.342445 23.9668 0.324043C23.9668 0.309319 23.8416 0.298275 23.6907 0.298275C23.5398 0.298275 23.4147 0.312996 23.4147 0.331402C23.4147 0.349804 23.3779 0.37925 23.3337 0.393974C23.2858 0.405018 22.7264 0.938728 22.0896 1.57182C21.4491 2.2086 20.9044 2.72759 20.8749 2.72759C20.8455 2.72759 20.3007 2.2086 19.6603 1.57182C18.9131 0.824627 18.464 0.405014 18.3978 0.390293C18.3426 0.375568 18.2984 0.349804 18.2984 0.331402C18.2984 0.312996 18.1843 0.298275 18.0407 0.298275C17.9009 0.298275 17.7831 0.312996 17.7831 0.331402C17.7831 0.349804 17.7389 0.375568 17.6837 0.390293C17.6174 0.405014 17.1684 0.824627 16.4212 1.57182C15.7807 2.2086 15.236 2.72759 15.2065 2.72759C15.1771 2.72759 14.6323 2.2086 13.9919 1.57182C13.3551 0.938728 12.7956 0.405018 12.7514 0.393974C12.7036 0.37925 12.6668 0.349804 12.6668 0.331402C12.6668 0.312996 12.5416 0.298275 12.3907 0.298275C12.2398 0.298275 12.1147 0.309319 12.1147 0.324043C12.1147 0.342445 12.0374 0.397655 11.938 0.452869C11.8349 0.511761 11.3343 0.982899 10.6608 1.65648L9.56021 2.7644L8.37868 1.59023C7.60571 0.820946 7.1677 0.412376 7.10144 0.393974C7.04255 0.382931 6.99838 0.353485 6.99838 0.335083C6.99838 0.290913 6.45731 0.283554 6.4389 0.324043ZM7.83024 3.42694C8.41548 4.01587 8.98232 4.56062 9.09275 4.63424C9.27679 4.76307 9.30255 4.77043 9.57125 4.76675C9.84363 4.76675 9.86203 4.75938 10.0571 4.61583C10.1639 4.53117 10.727 3.9901 11.3049 3.41222C11.8828 2.83433 12.3686 2.35951 12.3907 2.35951C12.4091 2.35951 12.9318 2.8601 13.5502 3.47479C14.1685 4.0858 14.7317 4.62687 14.8016 4.67841C14.9783 4.79987 15.4237 4.80723 15.6077 4.68945C15.6777 4.64896 16.2408 4.1042 16.8592 3.48583C17.4813 2.86746 18.0113 2.35951 18.0407 2.35951C18.0665 2.35951 18.6223 2.88955 19.2701 3.53368C20.0725 4.33241 20.4885 4.71889 20.5621 4.74098C20.7498 4.79251 21.1657 4.76675 21.2393 4.70049C21.2761 4.66737 21.3203 4.6416 21.3387 4.6416C21.3571 4.6416 21.8835 4.12629 22.5129 3.50055C23.1423 2.87114 23.6723 2.35951 23.6907 2.35951C23.7128 2.35951 24.1987 2.83433 24.7766 3.41222C25.3544 3.9901 25.9176 4.53117 26.0243 4.61583C26.2194 4.75938 26.2378 4.76675 26.5102 4.76675C26.7789 4.77043 26.8047 4.76307 26.9887 4.63424C27.0991 4.56062 27.666 4.01587 28.2512 3.42694C28.8365 2.8417 29.3297 2.35951 29.3481 2.35951C29.3665 2.35951 29.8744 2.85274 30.4744 3.46007C31.0781 4.06372 31.6449 4.60479 31.7332 4.66C31.8768 4.75202 31.9357 4.76675 32.1786 4.76675C32.4289 4.76675 32.4694 4.7557 32.6203 4.65264C32.7087 4.58639 33.2718 4.04531 33.8681 3.44902C34.4644 2.84906 34.9687 2.35951 34.9907 2.35951C35.0496 2.35951 38.8372 6.16544 38.8372 6.22433C38.8372 6.25378 38.355 6.76173 37.766 7.34697C37.1771 7.9359 36.6508 8.48065 36.5992 8.56163C36.4557 8.7788 36.4042 9.02541 36.463 9.24625C36.5183 9.45606 36.5919 9.5628 36.8643 9.8315C36.9784 9.94192 37.0704 10.0487 37.0704 10.0671C37.0704 10.1186 35.5171 11.6719 35.4692 11.6719C35.4472 11.6719 34.9502 11.1897 34.365 10.6008C33.7761 10.0119 33.2276 9.48183 33.1393 9.42293C32.8522 9.22785 32.5614 9.19841 32.2596 9.33828C32.1713 9.37877 31.6891 9.8315 30.9787 10.5382C30.3493 11.1603 29.8192 11.6719 29.8008 11.6719C29.7824 11.6719 29.245 11.1529 28.6046 10.5161C27.5813 9.49655 27.423 9.35668 27.2648 9.30147C27.1654 9.26834 27.0402 9.24258 26.985 9.24258C26.9298 9.24258 26.8047 9.26834 26.7053 9.30147C26.547 9.35668 26.3887 9.49655 25.3655 10.5161C24.725 11.1529 24.1803 11.6719 24.1508 11.6719C24.1214 11.6719 23.5693 11.1455 22.9178 10.5014C21.8356 9.41925 21.7252 9.32355 21.5669 9.28675C21.3387 9.22785 21.2541 9.23153 21.0369 9.30147C20.8786 9.35668 20.7203 9.50023 19.6971 10.5161C19.0566 11.1529 18.5192 11.6719 18.5008 11.6719C18.4824 11.6719 17.945 11.1529 17.3046 10.5161C16.2813 9.49655 16.123 9.35668 15.9648 9.30147C15.7476 9.23153 15.6666 9.22785 15.4347 9.28307C15.2728 9.32355 15.1108 9.47815 12.6189 11.9627C11.1098 13.4644 9.93197 14.668 9.87675 14.7637C9.75161 14.9736 9.74057 15.2938 9.84731 15.5183C9.89148 15.6103 10.3442 16.0962 11.0546 16.8066C11.6767 17.436 12.1883 17.966 12.1883 17.9844C12.1883 18.0065 11.7061 18.5034 11.1172 19.0887C10.5283 19.6776 9.99822 20.226 9.94301 20.307C9.77737 20.5389 9.73689 20.7487 9.7921 21.01L9.83995 21.2235L11.0141 22.4051C11.6619 23.0529 12.1883 23.6087 12.1883 23.6344C12.1883 23.6639 11.6693 24.2086 11.0325 24.8491C10.0129 25.8724 9.87307 26.0306 9.81786 26.1889C9.74425 26.4171 9.74425 26.5202 9.81786 26.7484C9.87307 26.9067 10.0129 27.0649 11.0325 28.0882C11.6693 28.7286 12.1883 29.266 12.1883 29.2844C12.1883 29.3028 11.6767 29.8329 11.0546 30.4623C10.3442 31.1727 9.89148 31.6585 9.84731 31.7506C9.80314 31.8463 9.77737 31.9751 9.77737 32.1186C9.78105 32.483 9.88044 32.6119 11.0988 33.8302C11.6987 34.4265 12.1883 34.9308 12.1883 34.9528C12.1883 35.0007 10.635 36.554 10.5871 36.554C10.5651 36.554 10.4583 36.462 10.3479 36.3479C10.0792 36.0755 9.97246 36.0019 9.76265 35.9467C9.5418 35.8878 9.29519 35.9393 9.07802 36.0828C8.99705 36.1344 8.45229 36.6607 7.86337 37.2497C7.27812 37.8386 6.77017 38.3208 6.74073 38.3208C6.68184 38.3208 2.87591 34.5332 2.87591 34.4743C2.87591 34.4523 3.36545 33.948 3.96542 33.3517C4.5617 32.7554 5.10278 32.1923 5.16903 32.1039C5.2721 31.953 5.28314 31.9125 5.28314 31.6622C5.28314 31.4193 5.26841 31.3604 5.18008 31.2205C5.12486 31.1322 4.58379 30.5653 3.97646 29.9654C3.37281 29.3617 2.87591 28.8538 2.87591 28.8354C2.87591 28.817 3.35809 28.3201 3.94333 27.7348C4.53226 27.1496 5.07333 26.5827 5.14695 26.4797C5.26841 26.2993 5.27946 26.2625 5.28314 26.0159C5.28314 25.773 5.2721 25.7288 5.16903 25.5632C5.10278 25.4638 4.5617 24.8933 3.96174 24.297C3.36545 23.7007 2.87591 23.1964 2.87591 23.1743C2.87591 23.1559 3.38017 22.6333 3.99486 22.0149C4.60587 21.3965 5.15063 20.826 5.19848 20.745C5.31258 20.5536 5.31995 20.1414 5.2132 19.9721C5.1764 19.9095 4.63532 19.3463 4.00959 18.7206C3.38753 18.0912 2.87591 17.5538 2.87591 17.528C2.87591 17.4986 3.38017 16.9685 3.99854 16.3502C4.61692 15.7281 5.15799 15.165 5.20216 15.095C5.31995 14.9073 5.31627 14.5024 5.19848 14.3037C5.15063 14.2227 4.60587 13.6522 3.99486 13.0338C3.38017 12.4154 2.87591 11.8927 2.87591 11.8743C2.87591 11.8522 3.35073 11.3664 3.92861 10.7885C4.50649 10.2106 5.04757 9.64746 5.13223 9.53704C5.27578 9.34563 5.28314 9.32724 5.28314 9.05854C5.28314 8.81929 5.26841 8.7604 5.18008 8.61684C5.12118 8.52482 4.58011 7.9543 3.97646 7.34697C3.36913 6.74332 2.87591 6.23537 2.87591 6.22433C2.87591 6.19121 6.7076 2.35951 6.73705 2.35951C6.75177 2.35951 7.245 2.8417 7.83024 3.42694ZM19.1045 14.6828C20.967 16.5379 22.4945 18.0838 22.4945 18.1133C22.4945 18.1722 21.2467 19.4383 21.1878 19.4383C21.1657 19.4383 19.6124 17.9035 17.7352 16.0263L14.3231 12.6105L14.9746 11.959C15.3354 11.5983 15.6482 11.3038 15.6703 11.3038C15.6924 11.3038 17.2383 12.824 19.1045 14.6828ZM24.7766 14.7085L28.1813 18.1133L27.3605 18.9304L26.5433 19.7512L23.1386 16.3465C21.2651 14.473 19.7376 12.9197 19.7413 12.8939C19.756 12.8313 21.2872 11.3038 21.335 11.3038C21.3571 11.3038 22.903 12.835 24.7766 14.7085ZM30.4155 14.6791C32.2743 16.5379 33.7945 18.0838 33.7945 18.1133C33.7945 18.1648 32.2559 19.7328 32.2044 19.7328C32.1749 19.7328 25.3655 12.9234 25.3655 12.8939C25.3655 12.8424 26.9335 11.3038 26.985 11.3038C27.0145 11.3038 28.5604 12.824 30.4155 14.6791ZM36.0729 14.6938C37.939 16.5563 39.4629 18.0949 39.4555 18.1133C39.4298 18.1906 37.8986 19.696 37.847 19.696C37.7845 19.696 31.0339 12.9675 31.0339 12.905C31.0339 12.8497 32.5872 11.3038 32.6387 11.3038C32.6608 11.3038 34.2067 12.8277 36.0729 14.6938ZM41.7082 14.6791C43.5706 16.5342 45.0945 18.0801 45.0945 18.1096C45.0945 18.1832 43.5854 19.696 43.5117 19.696C43.4381 19.696 36.7023 12.9602 36.7023 12.8866C36.7023 12.8203 38.2114 11.3038 38.2777 11.3038C38.3034 11.3038 39.8494 12.824 41.7082 14.6791ZM45.9705 13.3025L47.9655 15.2975L47.1557 16.1072C46.714 16.5489 46.3423 16.906 46.3312 16.8986C45.7865 16.3759 42.3928 12.9933 42.3633 12.9454C42.3302 12.8866 42.4296 12.7761 43.1105 12.0915C43.5449 11.6572 43.913 11.3038 43.935 11.3038C43.9571 11.3038 44.87 12.2019 45.9705 13.3025ZM19.9474 20.653C19.9547 20.7229 18.7033 21.9781 18.626 21.9781C18.5708 21.9781 11.8202 15.2091 11.8202 15.1502C11.8202 15.1318 12.1147 14.819 12.4717 14.4619L13.1269 13.8067L16.5353 17.2004C18.4088 19.0703 19.9437 20.6236 19.9474 20.653ZM16.8629 22.6222L20.2639 26.0233L19.4946 26.811C19.0419 27.2747 18.6922 27.6023 18.6481 27.606C18.5965 27.6097 17.577 26.6122 15.1992 24.2344C13.3404 22.3756 11.8202 20.8407 11.8202 20.8186C11.8202 20.7708 13.3735 19.2175 13.4213 19.2175C13.4398 19.2175 14.9894 20.7487 16.8629 22.6222ZM24.9054 20.4763C25.5127 21.08 26.0464 21.599 26.0943 21.6321C26.1421 21.6652 26.2636 21.7131 26.363 21.7388C26.5875 21.7977 26.8268 21.7462 27.0623 21.5806C27.1507 21.518 27.6954 20.9953 28.2733 20.4174C28.8512 19.8395 29.3481 19.3647 29.3775 19.3647C29.407 19.3647 29.9149 19.8469 30.5002 20.4358C31.0891 21.0248 31.6339 21.5511 31.7148 21.6026C32.0203 21.8051 32.4105 21.8124 32.6792 21.6174C32.7344 21.5732 33.2718 21.0505 33.8681 20.4542C34.5711 19.7475 34.9797 19.3647 35.0275 19.3647C35.0754 19.3647 35.484 19.7475 36.187 20.4542C36.7833 21.0505 37.3207 21.5732 37.3759 21.6174C37.4311 21.6579 37.5599 21.7131 37.6556 21.7388C37.8728 21.794 38.1268 21.7462 38.3218 21.6137C38.3918 21.5658 38.9513 21.0284 39.5659 20.4174L40.6775 19.3095L41.8112 20.4322C42.4333 21.0505 42.9928 21.5916 43.0516 21.6358C43.1658 21.7131 43.4345 21.7793 43.567 21.7609C43.8872 21.7204 43.8982 21.7131 45.0945 20.5205C45.8306 19.788 46.2834 19.3647 46.3275 19.3647C46.3754 19.3647 46.7987 19.7623 47.487 20.4542C48.0833 21.0505 48.6207 21.5732 48.6759 21.6174C48.9446 21.8124 49.3347 21.8051 49.6402 21.6026C49.7212 21.5511 50.266 21.0248 50.8549 20.4358C51.4401 19.8469 51.9481 19.3647 51.9775 19.3647C52.0364 19.3647 55.8424 23.1523 55.8424 23.2111C55.8424 23.2332 55.3528 23.7375 54.7529 24.3338C54.1566 24.9301 53.6155 25.4932 53.5492 25.5816C53.4462 25.7325 53.4351 25.773 53.4388 26.0233C53.4388 26.2404 53.4535 26.3325 53.5124 26.4245C53.5529 26.4907 54.094 27.0576 54.716 27.6833C55.3344 28.309 55.8424 28.8317 55.8424 28.8501C55.8424 28.8685 55.3491 29.3801 54.7418 29.9838C54.1382 30.5911 53.5971 31.158 53.5419 31.2463C53.4535 31.3788 53.4388 31.4451 53.4351 31.6696C53.4351 31.8867 53.4499 31.964 53.5198 32.0818C53.5713 32.1628 54.1124 32.7333 54.7271 33.3517C55.3418 33.9701 55.8424 34.4927 55.8424 34.5111C55.8424 34.5296 55.3381 35.0485 54.7271 35.6669C54.1124 36.289 53.5676 36.8595 53.5198 36.9405C53.4057 37.1319 53.3983 37.5441 53.5051 37.7134C53.5419 37.7723 54.083 38.3392 54.7087 38.9649C55.3307 39.5943 55.8424 40.1317 55.8424 40.1611C55.8424 40.1906 55.3307 40.728 54.7087 41.3574C54.083 41.9831 53.5419 42.5463 53.5051 42.6089C53.3983 42.7782 53.4057 43.1904 53.5198 43.3818C53.5676 43.4628 54.1124 44.0333 54.7271 44.6554C55.3381 45.2738 55.8424 45.7927 55.8424 45.8148C55.8424 45.8332 55.3675 46.3191 54.7897 46.897C54.2118 47.4749 53.6707 48.038 53.586 48.1484C53.4425 48.3398 53.4351 48.3583 53.4351 48.6269C53.4351 48.8588 53.4499 48.9251 53.5308 49.0539C53.586 49.1349 54.1271 49.7091 54.7345 50.3238C55.3418 50.9385 55.8424 51.4538 55.8424 51.4648C55.8424 51.4943 52.0107 55.326 51.9812 55.326C51.9665 55.326 51.4733 54.8438 50.888 54.2549C50.3028 53.6696 49.7323 53.1285 49.6255 53.0549C49.4378 52.9298 49.4047 52.9187 49.1433 52.9187C48.8746 52.9187 48.8562 52.9261 48.6648 53.0697C48.5544 53.1543 47.9913 53.6954 47.4134 54.2733C46.8355 54.8511 46.3496 55.326 46.3312 55.326C46.3091 55.326 45.7901 54.8217 45.1718 54.2107C44.5497 53.596 43.9792 53.0512 43.8982 53.0034C43.7068 52.8893 43.2946 52.8819 43.1253 52.9887C43.0664 53.0255 42.4995 53.5666 41.8738 54.1923C41.2444 54.8143 40.707 55.326 40.6775 55.326C40.6481 55.326 40.1107 54.8143 39.4813 54.1923C38.8556 53.5666 38.2924 53.0255 38.2298 52.9887C38.0605 52.8819 37.6446 52.893 37.4569 53.0034C37.3759 53.0512 36.8054 53.596 36.187 54.207C35.5686 54.8217 35.0459 55.326 35.0275 55.326C35.0055 55.326 34.5196 54.8511 33.9417 54.2733C33.3638 53.6954 32.8007 53.1543 32.6902 53.0697C32.4952 52.9261 32.4841 52.9187 32.2044 52.9187C31.9357 52.9187 31.9062 52.9298 31.7259 53.0549C31.6191 53.1285 31.0523 53.6696 30.4671 54.2585C29.8818 54.8438 29.3886 55.326 29.3739 55.326C29.3555 55.326 28.8475 54.8291 28.2402 54.2254C27.6365 53.6181 27.0697 53.077 26.9814 53.0218C26.8415 52.9335 26.7826 52.9187 26.5397 52.9187C26.2894 52.9187 26.2489 52.9298 26.098 53.0328C26.0096 53.0991 25.4465 53.6402 24.8502 54.2365C24.2539 54.8364 23.7496 55.326 23.7275 55.326C23.6686 55.326 19.8811 51.52 19.8811 51.4612C19.8811 51.4317 20.3633 50.9238 20.9522 50.3385C21.5375 49.7496 22.0675 49.2048 22.1227 49.1239C22.3288 48.8183 22.3325 48.4355 22.1338 48.1595C22.0896 48.1043 21.5669 47.5669 20.9706 46.9706C20.2639 46.2676 19.8811 45.859 19.8811 45.8111C19.8811 45.7633 20.2676 45.3511 20.9854 44.6333C21.5964 44.026 22.1227 43.4775 22.1595 43.4186C22.3252 43.1463 22.3215 42.8076 22.1485 42.5353C22.108 42.4727 21.5706 41.9169 20.9522 41.2948L19.8259 40.1611L20.9338 39.0496C21.5448 38.4349 22.0822 37.8754 22.1301 37.8054C22.3215 37.5294 22.3325 37.1871 22.1595 36.9037C22.1227 36.8411 21.5964 36.2963 20.9854 35.689C20.2676 34.9712 19.8811 34.559 19.8811 34.5111C19.8811 34.4633 20.2492 34.0695 20.9338 33.3885C21.5117 32.8106 22.0344 32.2769 22.097 32.1996C22.3325 31.9052 22.3436 31.5224 22.1227 31.1984C22.0675 31.1175 21.5375 30.5727 20.9522 29.9838C20.3633 29.3985 19.8811 28.8906 19.8811 28.8611C19.8811 28.8317 20.3559 28.3348 20.9338 27.7569C21.5117 27.179 22.0344 26.638 22.0933 26.5496C22.1558 26.465 22.2295 26.3104 22.2589 26.211C22.3068 26.049 22.3068 26.0085 22.2552 25.8245C22.1816 25.5779 22.1595 25.5558 20.8381 24.2344C19.9805 23.3768 19.8443 23.2259 19.8774 23.167C19.8958 23.1302 20.7645 22.2505 21.8062 21.2088C23.1497 19.869 23.7165 19.3279 23.7496 19.3463C23.7791 19.3647 24.2981 19.8727 24.9054 20.4763ZM16.8555 28.2465C18.7217 30.1126 20.2492 31.6585 20.2492 31.6769C20.2492 31.7358 18.6885 33.2781 18.6297 33.2781C18.556 33.2781 11.8202 26.5423 11.8202 26.4686C11.8202 26.4097 13.3625 24.8491 13.4213 24.8491C13.4434 24.8491 14.9857 26.3766 16.8555 28.2465ZM16.8555 33.9149C18.7217 35.781 20.2492 37.3196 20.2492 37.3306C20.2492 37.3711 18.6996 38.8913 18.6407 38.906C18.6039 38.9134 17.4187 37.7539 15.2028 35.5381C13.3404 33.6756 11.8202 32.1407 11.8202 32.1186C11.8202 32.0634 13.3404 30.5285 13.4029 30.5249C13.4324 30.5212 14.9857 32.045 16.8555 33.9149ZM16.8702 39.5722C18.718 41.4384 20.2382 42.9696 20.2455 42.9806C20.275 43.0101 18.6885 44.5781 18.626 44.5781C18.5597 44.5781 11.8202 37.8275 11.8202 37.7576C11.8202 37.7355 12.1625 37.3711 12.5821 36.9515C13.1085 36.4252 13.3735 36.1859 13.4287 36.1859C13.4839 36.1859 14.4667 37.1539 16.8702 39.5722ZM15.4347 43.7941C16.5242 44.8836 17.415 45.7891 17.415 45.8111C17.415 45.859 15.8617 47.4123 15.8139 47.4123C15.766 47.4123 11.8202 43.4665 11.8202 43.4186C11.8202 43.3708 13.3735 41.8175 13.4213 41.8175C13.4398 41.8175 14.3489 42.7083 15.4347 43.7941Z"/>
</mask>
<path d="M6.4389 0.324043C6.43522 0.342445 6.36161 0.397655 6.28063 0.452869C6.0561 0.60746 0.92509 5.75687 0.92509 5.83049C0.92509 5.8673 0.899325 5.90411 0.869878 5.91515C0.82939 5.93355 0.814667 6.00349 0.814667 6.20961C0.814667 6.36052 0.82939 6.48199 0.847794 6.48199C0.866198 6.48199 0.899325 6.5372 0.92509 6.59977C0.954536 6.67339 1.43672 7.18502 2.12871 7.88069L3.28079 9.04382L2.17288 10.1444C1.49929 10.818 1.02815 11.3185 0.96926 11.4216C0.914048 11.521 0.858836 11.5983 0.844113 11.5983C0.825709 11.5983 0.814667 11.7234 0.814667 11.8743C0.814667 12.0252 0.82939 12.1504 0.847794 12.1504C0.866198 12.1504 0.895644 12.1872 0.910367 12.2314C0.921409 12.2792 1.45512 12.8387 2.08822 13.4755C2.72499 14.1159 3.24398 14.6607 3.24398 14.6901C3.24398 14.7196 2.72499 15.2643 2.08822 15.9048C1.33366 16.6667 0.928771 17.0974 0.910367 17.1636C0.899325 17.2225 0.869878 17.2667 0.851475 17.2667C0.82939 17.2667 0.814667 17.3808 0.814667 17.5243C0.814667 17.6679 0.82939 17.782 0.851475 17.782C0.869878 17.782 0.899325 17.8262 0.910367 17.8814C0.928771 17.9513 1.33366 18.382 2.08822 19.1439C2.72499 19.7843 3.24398 20.3291 3.24398 20.3585C3.24398 20.388 2.72499 20.9327 2.08822 21.5732C1.45512 22.21 0.921409 22.7695 0.910367 22.8136C0.895644 22.8615 0.866198 22.8983 0.847794 22.8983C0.82939 22.8983 0.814667 23.0234 0.814667 23.1743C0.814667 23.3253 0.825709 23.4504 0.844113 23.4504C0.858836 23.4504 0.914048 23.5277 0.96926 23.6271C1.02815 23.7301 1.49929 24.2307 2.17288 24.9043L3.28079 26.0049L2.12871 27.168C1.43672 27.8637 0.954536 28.3753 0.92509 28.4452C0.899325 28.5115 0.866198 28.5667 0.847794 28.5667C0.82939 28.5667 0.814667 28.6918 0.814667 28.8427C0.814667 28.9937 0.82939 29.1188 0.847794 29.1188C0.866198 29.1188 0.895644 29.1556 0.910367 29.1998C0.921409 29.2476 1.45512 29.8071 2.08822 30.4439C2.72499 31.0843 3.24398 31.6291 3.24398 31.6585C3.24398 31.688 2.72499 32.2327 2.08822 32.8732C1.33366 33.6278 0.921409 34.0695 0.906686 34.132C0.891963 34.1909 0.866198 34.2351 0.847794 34.2351C0.82939 34.2351 0.814667 34.3492 0.814667 34.4927C0.814667 34.6326 0.82939 34.7504 0.847794 34.7504C0.866198 34.7504 0.903006 34.8056 0.928771 34.8682C0.976621 34.9896 5.9604 40.0102 6.23278 40.2127C6.4389 40.3673 6.69656 40.4225 6.92109 40.3636C7.02415 40.3378 7.15298 40.2826 7.20819 40.2421C7.2634 40.2016 7.79343 39.6826 8.37868 39.0937C8.9676 38.5048 9.47555 38.0042 9.51604 37.9821C9.57493 37.949 9.75161 38.111 10.8853 39.2446C11.603 39.9624 12.1883 40.5624 12.1883 40.5844C12.1883 40.6065 11.7061 41.1034 11.1172 41.6887C10.5319 42.2776 10.0019 42.826 9.93933 42.9144C9.74425 43.2015 9.7148 43.4923 9.85467 43.7941C9.94301 43.9855 15.2028 49.249 15.4163 49.3557C15.6445 49.4735 15.8323 49.4919 16.0605 49.4183C16.2408 49.3594 16.3512 49.2564 17.4408 48.1742L18.6297 46.9927L19.4394 47.7988C19.8848 48.2441 20.2492 48.6233 20.2492 48.6417C20.2492 48.6601 19.7228 49.2085 19.075 49.8563C17.9377 51.0011 17.9009 51.0452 17.842 51.2513C17.7868 51.4427 17.7868 51.4796 17.8383 51.6526C17.8677 51.7556 17.9377 51.8992 17.9929 51.9728C18.1953 52.2452 23.2122 57.2253 23.3337 57.2731C23.3963 57.3025 23.4515 57.3357 23.4515 57.3541C23.4515 57.3725 23.5693 57.3872 23.7091 57.3872C23.8527 57.3872 23.9668 57.3725 23.9668 57.3541C23.9668 57.3357 24.011 57.3099 24.0699 57.2952C24.1324 57.2805 24.5741 56.8682 25.3287 56.1137C25.9691 55.4769 26.5139 54.9579 26.5433 54.9579C26.5728 54.9579 27.1175 55.4769 27.758 56.1137C28.3948 56.7468 28.9543 57.2805 29.0021 57.2915C29.0463 57.3062 29.0831 57.3357 29.0831 57.3541C29.0831 57.3725 29.2082 57.3872 29.3591 57.3872C29.51 57.3872 29.6352 57.3725 29.6352 57.3541C29.6352 57.3357 29.6904 57.3025 29.7567 57.2768C29.8266 57.2473 30.3382 56.7652 31.0339 56.0732L32.197 54.9211L33.2976 56.029C33.9712 56.7026 34.4717 57.1737 34.5748 57.2326C34.6742 57.2878 34.7515 57.343 34.7515 57.3578C34.7515 57.3762 34.8766 57.3872 35.0275 57.3872C35.1785 57.3872 35.3036 57.3725 35.3036 57.3541C35.3036 57.3357 35.3404 57.3062 35.3883 57.2915C35.4324 57.2805 35.9919 56.7468 36.6287 56.1137C37.2691 55.4769 37.8139 54.9579 37.8433 54.9579C37.8728 54.9579 38.4175 55.4769 39.058 56.1137C39.8052 56.8609 40.2543 57.2805 40.3205 57.2952C40.3757 57.3099 40.4199 57.3357 40.4199 57.3541C40.4199 57.3725 40.5377 57.3872 40.6775 57.3872C40.8211 57.3872 40.9352 57.3725 40.9352 57.3504C40.9352 57.332 40.9794 57.3025 41.0383 57.2915C41.1045 57.2731 41.5352 56.8682 42.2971 56.1137C42.9375 55.4769 43.4823 54.9579 43.5117 54.9579C43.5412 54.9579 44.0859 55.4769 44.7264 56.1137C45.3632 56.7468 45.9227 57.2805 45.9705 57.2915C46.0147 57.3062 46.0515 57.3357 46.0515 57.3541C46.0515 57.3725 46.1766 57.3872 46.3275 57.3872C46.4785 57.3872 46.6036 57.3762 46.6036 57.3578C46.6036 57.343 46.6809 57.2878 46.7803 57.2326C46.8833 57.1737 47.3839 56.7026 48.0575 56.029L49.1581 54.9211L50.3212 56.0732C51.0169 56.7652 51.5285 57.2473 51.6021 57.2768C51.6647 57.3025 51.7199 57.3357 51.7199 57.3541C51.7199 57.3725 51.8414 57.3872 51.9923 57.3872C52.1984 57.3872 52.2683 57.3725 52.2867 57.332C52.2978 57.3025 52.3346 57.2768 52.3714 57.2768C52.4524 57.2768 57.6239 52.1163 57.7453 51.9102C57.7969 51.8255 57.8521 51.7556 57.8705 51.7556C57.8889 51.7556 57.9036 51.6305 57.9036 51.4796C57.9036 51.3286 57.8889 51.2035 57.8705 51.2035C57.8521 51.2035 57.8189 51.1483 57.7932 51.082C57.7637 51.0121 57.2816 50.4968 56.5859 49.8011L55.4301 48.6343L56.5307 47.5338C57.1343 46.9301 57.6791 46.3596 57.738 46.2712C57.8005 46.1792 57.8594 46.1019 57.8778 46.0946C57.9146 46.0762 57.911 45.5351 57.8705 45.5351C57.8521 45.5351 57.8226 45.4983 57.8079 45.4504C57.7969 45.4063 57.2631 44.8468 56.6301 44.21C55.9933 43.5696 55.4743 43.0248 55.4743 42.9954C55.4743 42.9659 55.9859 42.4285 56.608 41.7991C57.2889 41.1182 57.7637 40.6102 57.7932 40.5366C57.8189 40.474 57.8521 40.4188 57.8705 40.4188C57.8889 40.4188 57.9036 40.301 57.9036 40.1611C57.9036 40.0176 57.8889 39.9035 57.8668 39.9035C57.8484 39.9035 57.8189 39.8593 57.8079 39.8004C57.7895 39.7342 57.3846 39.3035 56.6301 38.5416C55.9933 37.9011 55.4743 37.3564 55.4743 37.3269C55.4743 37.2975 55.9933 36.7527 56.6301 36.1123C57.2631 35.4755 57.7969 34.916 57.8079 34.8682C57.8226 34.824 57.8521 34.7872 57.8705 34.7872C57.8889 34.7872 57.9036 34.6621 57.9036 34.5111C57.9036 34.3602 57.8926 34.2351 57.8778 34.2351C57.8594 34.2351 57.8042 34.1578 57.749 34.0584C57.6901 33.9554 57.2116 33.4511 56.5454 32.7812L55.4375 31.6769L56.5896 30.5175C57.2816 29.8218 57.7637 29.3102 57.7932 29.2366C57.8189 29.174 57.8521 29.1188 57.8705 29.1188C57.8889 29.1188 57.9036 28.9937 57.9036 28.8427C57.9036 28.6918 57.8889 28.5667 57.8705 28.5667C57.8521 28.5667 57.8226 28.5299 57.8079 28.482C57.7969 28.4379 57.2631 27.8784 56.6301 27.2416C55.9933 26.6011 55.4743 26.0564 55.4743 26.0269C55.4743 25.9975 55.9933 25.4527 56.6301 24.8123C57.3846 24.0577 57.7969 23.616 57.8116 23.5498C57.8263 23.4946 57.8521 23.4504 57.8705 23.4504C57.8889 23.4504 57.9036 23.3326 57.9036 23.1927C57.9036 23.0492 57.8889 22.9351 57.8705 22.9351C57.8521 22.9351 57.8153 22.8799 57.7895 22.8136C57.7416 22.6958 52.7579 17.6753 52.4855 17.4728C52.353 17.3734 52.0107 17.2593 51.9297 17.2851C51.9039 17.2924 51.8119 17.3182 51.7199 17.3403C51.5727 17.3808 51.4365 17.5023 50.3727 18.5586C49.7249 19.2028 49.1875 19.7328 49.1765 19.7328C49.147 19.7328 47.579 18.1538 47.5643 18.1096C47.5569 18.0875 48.0649 17.5538 48.6943 16.9207C49.8979 15.7171 49.9862 15.6066 49.9899 15.2975C49.9899 14.9404 49.9899 14.9404 47.2036 12.1541C45.7681 10.7222 44.5313 9.50023 44.4467 9.43398C44.1375 9.19473 43.7694 9.19104 43.4345 9.42293C43.3461 9.48183 42.794 10.0155 42.2051 10.6008C41.6198 11.1897 41.1229 11.6719 41.1008 11.6719C41.053 11.6719 38.4691 9.08798 38.4691 9.04382C38.4691 9.02173 38.9954 8.47697 39.6432 7.82915C40.7806 6.68443 40.8174 6.64026 40.8763 6.43414C40.9315 6.24274 40.9315 6.20593 40.88 6.03293C40.8505 5.92987 40.7806 5.78632 40.7254 5.71271C40.5266 5.44401 35.506 0.460228 35.3883 0.412376C35.322 0.386612 35.2668 0.349804 35.2668 0.331402C35.2668 0.312996 35.1416 0.298275 34.9907 0.298275C34.8398 0.298275 34.7147 0.312996 34.7147 0.331402C34.7147 0.349804 34.6779 0.37925 34.6337 0.393974C34.5858 0.405018 34.0264 0.938728 33.3896 1.57182C32.7491 2.2086 32.2044 2.72759 32.1749 2.72759C32.1455 2.72759 31.6007 2.2086 30.9603 1.57182C30.3235 0.938728 29.764 0.405018 29.7199 0.393974C29.672 0.37925 29.6352 0.349804 29.6352 0.331402C29.6352 0.312996 29.51 0.298275 29.3591 0.298275C29.2082 0.298275 29.0831 0.312996 29.0831 0.331402C29.0831 0.349804 29.0279 0.382931 28.9653 0.408695C28.8917 0.438145 28.38 0.920326 27.6844 1.61232L26.5213 2.7644L25.4207 1.65648C24.7471 0.982899 24.2465 0.511761 24.1435 0.452869C24.0441 0.397655 23.9668 0.342445 23.9668 0.324043C23.9668 0.309319 23.8416 0.298275 23.6907 0.298275C23.5398 0.298275 23.4147 0.312996 23.4147 0.331402C23.4147 0.349804 23.3779 0.37925 23.3337 0.393974C23.2858 0.405018 22.7264 0.938728 22.0896 1.57182C21.4491 2.2086 20.9044 2.72759 20.8749 2.72759C20.8455 2.72759 20.3007 2.2086 19.6603 1.57182C18.9131 0.824627 18.464 0.405014 18.3978 0.390293C18.3426 0.375568 18.2984 0.349804 18.2984 0.331402C18.2984 0.312996 18.1843 0.298275 18.0407 0.298275C17.9009 0.298275 17.7831 0.312996 17.7831 0.331402C17.7831 0.349804 17.7389 0.375568 17.6837 0.390293C17.6174 0.405014 17.1684 0.824627 16.4212 1.57182C15.7807 2.2086 15.236 2.72759 15.2065 2.72759C15.1771 2.72759 14.6323 2.2086 13.9919 1.57182C13.3551 0.938728 12.7956 0.405018 12.7514 0.393974C12.7036 0.37925 12.6668 0.349804 12.6668 0.331402C12.6668 0.312996 12.5416 0.298275 12.3907 0.298275C12.2398 0.298275 12.1147 0.309319 12.1147 0.324043C12.1147 0.342445 12.0374 0.397655 11.938 0.452869C11.8349 0.511761 11.3343 0.982899 10.6608 1.65648L9.56021 2.7644L8.37868 1.59023C7.60571 0.820946 7.1677 0.412376 7.10144 0.393974C7.04255 0.382931 6.99838 0.353485 6.99838 0.335083C6.99838 0.290913 6.45731 0.283554 6.4389 0.324043ZM7.83024 3.42694C8.41548 4.01587 8.98232 4.56062 9.09275 4.63424C9.27679 4.76307 9.30255 4.77043 9.57125 4.76675C9.84363 4.76675 9.86203 4.75938 10.0571 4.61583C10.1639 4.53117 10.727 3.9901 11.3049 3.41222C11.8828 2.83433 12.3686 2.35951 12.3907 2.35951C12.4091 2.35951 12.9318 2.8601 13.5502 3.47479C14.1685 4.0858 14.7317 4.62687 14.8016 4.67841C14.9783 4.79987 15.4237 4.80723 15.6077 4.68945C15.6777 4.64896 16.2408 4.1042 16.8592 3.48583C17.4813 2.86746 18.0113 2.35951 18.0407 2.35951C18.0665 2.35951 18.6223 2.88955 19.2701 3.53368C20.0725 4.33241 20.4885 4.71889 20.5621 4.74098C20.7498 4.79251 21.1657 4.76675 21.2393 4.70049C21.2761 4.66737 21.3203 4.6416 21.3387 4.6416C21.3571 4.6416 21.8835 4.12629 22.5129 3.50055C23.1423 2.87114 23.6723 2.35951 23.6907 2.35951C23.7128 2.35951 24.1987 2.83433 24.7766 3.41222C25.3544 3.9901 25.9176 4.53117 26.0243 4.61583C26.2194 4.75938 26.2378 4.76675 26.5102 4.76675C26.7789 4.77043 26.8047 4.76307 26.9887 4.63424C27.0991 4.56062 27.666 4.01587 28.2512 3.42694C28.8365 2.8417 29.3297 2.35951 29.3481 2.35951C29.3665 2.35951 29.8744 2.85274 30.4744 3.46007C31.0781 4.06372 31.6449 4.60479 31.7332 4.66C31.8768 4.75202 31.9357 4.76675 32.1786 4.76675C32.4289 4.76675 32.4694 4.7557 32.6203 4.65264C32.7087 4.58639 33.2718 4.04531 33.8681 3.44902C34.4644 2.84906 34.9687 2.35951 34.9907 2.35951C35.0496 2.35951 38.8372 6.16544 38.8372 6.22433C38.8372 6.25378 38.355 6.76173 37.766 7.34697C37.1771 7.9359 36.6508 8.48065 36.5992 8.56163C36.4557 8.7788 36.4042 9.02541 36.463 9.24625C36.5183 9.45606 36.5919 9.5628 36.8643 9.8315C36.9784 9.94192 37.0704 10.0487 37.0704 10.0671C37.0704 10.1186 35.5171 11.6719 35.4692 11.6719C35.4472 11.6719 34.9502 11.1897 34.365 10.6008C33.7761 10.0119 33.2276 9.48183 33.1393 9.42293C32.8522 9.22785 32.5614 9.19841 32.2596 9.33828C32.1713 9.37877 31.6891 9.8315 30.9787 10.5382C30.3493 11.1603 29.8192 11.6719 29.8008 11.6719C29.7824 11.6719 29.245 11.1529 28.6046 10.5161C27.5813 9.49655 27.423 9.35668 27.2648 9.30147C27.1654 9.26834 27.0402 9.24258 26.985 9.24258C26.9298 9.24258 26.8047 9.26834 26.7053 9.30147C26.547 9.35668 26.3887 9.49655 25.3655 10.5161C24.725 11.1529 24.1803 11.6719 24.1508 11.6719C24.1214 11.6719 23.5693 11.1455 22.9178 10.5014C21.8356 9.41925 21.7252 9.32355 21.5669 9.28675C21.3387 9.22785 21.2541 9.23153 21.0369 9.30147C20.8786 9.35668 20.7203 9.50023 19.6971 10.5161C19.0566 11.1529 18.5192 11.6719 18.5008 11.6719C18.4824 11.6719 17.945 11.1529 17.3046 10.5161C16.2813 9.49655 16.123 9.35668 15.9648 9.30147C15.7476 9.23153 15.6666 9.22785 15.4347 9.28307C15.2728 9.32355 15.1108 9.47815 12.6189 11.9627C11.1098 13.4644 9.93197 14.668 9.87675 14.7637C9.75161 14.9736 9.74057 15.2938 9.84731 15.5183C9.89148 15.6103 10.3442 16.0962 11.0546 16.8066C11.6767 17.436 12.1883 17.966 12.1883 17.9844C12.1883 18.0065 11.7061 18.5034 11.1172 19.0887C10.5283 19.6776 9.99822 20.226 9.94301 20.307C9.77737 20.5389 9.73689 20.7487 9.7921 21.01L9.83995 21.2235L11.0141 22.4051C11.6619 23.0529 12.1883 23.6087 12.1883 23.6344C12.1883 23.6639 11.6693 24.2086 11.0325 24.8491C10.0129 25.8724 9.87307 26.0306 9.81786 26.1889C9.74425 26.4171 9.74425 26.5202 9.81786 26.7484C9.87307 26.9067 10.0129 27.0649 11.0325 28.0882C11.6693 28.7286 12.1883 29.266 12.1883 29.2844C12.1883 29.3028 11.6767 29.8329 11.0546 30.4623C10.3442 31.1727 9.89148 31.6585 9.84731 31.7506C9.80314 31.8463 9.77737 31.9751 9.77737 32.1186C9.78105 32.483 9.88044 32.6119 11.0988 33.8302C11.6987 34.4265 12.1883 34.9308 12.1883 34.9528C12.1883 35.0007 10.635 36.554 10.5871 36.554C10.5651 36.554 10.4583 36.462 10.3479 36.3479C10.0792 36.0755 9.97246 36.0019 9.76265 35.9467C9.5418 35.8878 9.29519 35.9393 9.07802 36.0828C8.99705 36.1344 8.45229 36.6607 7.86337 37.2497C7.27812 37.8386 6.77017 38.3208 6.74073 38.3208C6.68184 38.3208 2.87591 34.5332 2.87591 34.4743C2.87591 34.4523 3.36545 33.948 3.96542 33.3517C4.5617 32.7554 5.10278 32.1923 5.16903 32.1039C5.2721 31.953 5.28314 31.9125 5.28314 31.6622C5.28314 31.4193 5.26841 31.3604 5.18008 31.2205C5.12486 31.1322 4.58379 30.5653 3.97646 29.9654C3.37281 29.3617 2.87591 28.8538 2.87591 28.8354C2.87591 28.817 3.35809 28.3201 3.94333 27.7348C4.53226 27.1496 5.07333 26.5827 5.14695 26.4797C5.26841 26.2993 5.27946 26.2625 5.28314 26.0159C5.28314 25.773 5.2721 25.7288 5.16903 25.5632C5.10278 25.4638 4.5617 24.8933 3.96174 24.297C3.36545 23.7007 2.87591 23.1964 2.87591 23.1743C2.87591 23.1559 3.38017 22.6333 3.99486 22.0149C4.60587 21.3965 5.15063 20.826 5.19848 20.745C5.31258 20.5536 5.31995 20.1414 5.2132 19.9721C5.1764 19.9095 4.63532 19.3463 4.00959 18.7206C3.38753 18.0912 2.87591 17.5538 2.87591 17.528C2.87591 17.4986 3.38017 16.9685 3.99854 16.3502C4.61692 15.7281 5.15799 15.165 5.20216 15.095C5.31995 14.9073 5.31627 14.5024 5.19848 14.3037C5.15063 14.2227 4.60587 13.6522 3.99486 13.0338C3.38017 12.4154 2.87591 11.8927 2.87591 11.8743C2.87591 11.8522 3.35073 11.3664 3.92861 10.7885C4.50649 10.2106 5.04757 9.64746 5.13223 9.53704C5.27578 9.34563 5.28314 9.32724 5.28314 9.05854C5.28314 8.81929 5.26841 8.7604 5.18008 8.61684C5.12118 8.52482 4.58011 7.9543 3.97646 7.34697C3.36913 6.74332 2.87591 6.23537 2.87591 6.22433C2.87591 6.19121 6.7076 2.35951 6.73705 2.35951C6.75177 2.35951 7.245 2.8417 7.83024 3.42694ZM19.1045 14.6828C20.967 16.5379 22.4945 18.0838 22.4945 18.1133C22.4945 18.1722 21.2467 19.4383 21.1878 19.4383C21.1657 19.4383 19.6124 17.9035 17.7352 16.0263L14.3231 12.6105L14.9746 11.959C15.3354 11.5983 15.6482 11.3038 15.6703 11.3038C15.6924 11.3038 17.2383 12.824 19.1045 14.6828ZM24.7766 14.7085L28.1813 18.1133L27.3605 18.9304L26.5433 19.7512L23.1386 16.3465C21.2651 14.473 19.7376 12.9197 19.7413 12.8939C19.756 12.8313 21.2872 11.3038 21.335 11.3038C21.3571 11.3038 22.903 12.835 24.7766 14.7085ZM30.4155 14.6791C32.2743 16.5379 33.7945 18.0838 33.7945 18.1133C33.7945 18.1648 32.2559 19.7328 32.2044 19.7328C32.1749 19.7328 25.3655 12.9234 25.3655 12.8939C25.3655 12.8424 26.9335 11.3038 26.985 11.3038C27.0145 11.3038 28.5604 12.824 30.4155 14.6791ZM36.0729 14.6938C37.939 16.5563 39.4629 18.0949 39.4555 18.1133C39.4298 18.1906 37.8986 19.696 37.847 19.696C37.7845 19.696 31.0339 12.9675 31.0339 12.905C31.0339 12.8497 32.5872 11.3038 32.6387 11.3038C32.6608 11.3038 34.2067 12.8277 36.0729 14.6938ZM41.7082 14.6791C43.5706 16.5342 45.0945 18.0801 45.0945 18.1096C45.0945 18.1832 43.5854 19.696 43.5117 19.696C43.4381 19.696 36.7023 12.9602 36.7023 12.8866C36.7023 12.8203 38.2114 11.3038 38.2777 11.3038C38.3034 11.3038 39.8494 12.824 41.7082 14.6791ZM45.9705 13.3025L47.9655 15.2975L47.1557 16.1072C46.714 16.5489 46.3423 16.906 46.3312 16.8986C45.7865 16.3759 42.3928 12.9933 42.3633 12.9454C42.3302 12.8866 42.4296 12.7761 43.1105 12.0915C43.5449 11.6572 43.913 11.3038 43.935 11.3038C43.9571 11.3038 44.87 12.2019 45.9705 13.3025ZM19.9474 20.653C19.9547 20.7229 18.7033 21.9781 18.626 21.9781C18.5708 21.9781 11.8202 15.2091 11.8202 15.1502C11.8202 15.1318 12.1147 14.819 12.4717 14.4619L13.1269 13.8067L16.5353 17.2004C18.4088 19.0703 19.9437 20.6236 19.9474 20.653ZM16.8629 22.6222L20.2639 26.0233L19.4946 26.811C19.0419 27.2747 18.6922 27.6023 18.6481 27.606C18.5965 27.6097 17.577 26.6122 15.1992 24.2344C13.3404 22.3756 11.8202 20.8407 11.8202 20.8186C11.8202 20.7708 13.3735 19.2175 13.4213 19.2175C13.4398 19.2175 14.9894 20.7487 16.8629 22.6222ZM24.9054 20.4763C25.5127 21.08 26.0464 21.599 26.0943 21.6321C26.1421 21.6652 26.2636 21.7131 26.363 21.7388C26.5875 21.7977 26.8268 21.7462 27.0623 21.5806C27.1507 21.518 27.6954 20.9953 28.2733 20.4174C28.8512 19.8395 29.3481 19.3647 29.3775 19.3647C29.407 19.3647 29.9149 19.8469 30.5002 20.4358C31.0891 21.0248 31.6339 21.5511 31.7148 21.6026C32.0203 21.8051 32.4105 21.8124 32.6792 21.6174C32.7344 21.5732 33.2718 21.0505 33.8681 20.4542C34.5711 19.7475 34.9797 19.3647 35.0275 19.3647C35.0754 19.3647 35.484 19.7475 36.187 20.4542C36.7833 21.0505 37.3207 21.5732 37.3759 21.6174C37.4311 21.6579 37.5599 21.7131 37.6556 21.7388C37.8728 21.794 38.1268 21.7462 38.3218 21.6137C38.3918 21.5658 38.9513 21.0284 39.5659 20.4174L40.6775 19.3095L41.8112 20.4322C42.4333 21.0505 42.9928 21.5916 43.0516 21.6358C43.1658 21.7131 43.4345 21.7793 43.567 21.7609C43.8872 21.7204 43.8982 21.7131 45.0945 20.5205C45.8306 19.788 46.2834 19.3647 46.3275 19.3647C46.3754 19.3647 46.7987 19.7623 47.487 20.4542C48.0833 21.0505 48.6207 21.5732 48.6759 21.6174C48.9446 21.8124 49.3347 21.8051 49.6402 21.6026C49.7212 21.5511 50.266 21.0248 50.8549 20.4358C51.4401 19.8469 51.9481 19.3647 51.9775 19.3647C52.0364 19.3647 55.8424 23.1523 55.8424 23.2111C55.8424 23.2332 55.3528 23.7375 54.7529 24.3338C54.1566 24.9301 53.6155 25.4932 53.5492 25.5816C53.4462 25.7325 53.4351 25.773 53.4388 26.0233C53.4388 26.2404 53.4535 26.3325 53.5124 26.4245C53.5529 26.4907 54.094 27.0576 54.716 27.6833C55.3344 28.309 55.8424 28.8317 55.8424 28.8501C55.8424 28.8685 55.3491 29.3801 54.7418 29.9838C54.1382 30.5911 53.5971 31.158 53.5419 31.2463C53.4535 31.3788 53.4388 31.4451 53.4351 31.6696C53.4351 31.8867 53.4499 31.964 53.5198 32.0818C53.5713 32.1628 54.1124 32.7333 54.7271 33.3517C55.3418 33.9701 55.8424 34.4927 55.8424 34.5111C55.8424 34.5296 55.3381 35.0485 54.7271 35.6669C54.1124 36.289 53.5676 36.8595 53.5198 36.9405C53.4057 37.1319 53.3983 37.5441 53.5051 37.7134C53.5419 37.7723 54.083 38.3392 54.7087 38.9649C55.3307 39.5943 55.8424 40.1317 55.8424 40.1611C55.8424 40.1906 55.3307 40.728 54.7087 41.3574C54.083 41.9831 53.5419 42.5463 53.5051 42.6089C53.3983 42.7782 53.4057 43.1904 53.5198 43.3818C53.5676 43.4628 54.1124 44.0333 54.7271 44.6554C55.3381 45.2738 55.8424 45.7927 55.8424 45.8148C55.8424 45.8332 55.3675 46.3191 54.7897 46.897C54.2118 47.4749 53.6707 48.038 53.586 48.1484C53.4425 48.3398 53.4351 48.3583 53.4351 48.6269C53.4351 48.8588 53.4499 48.9251 53.5308 49.0539C53.586 49.1349 54.1271 49.7091 54.7345 50.3238C55.3418 50.9385 55.8424 51.4538 55.8424 51.4648C55.8424 51.4943 52.0107 55.326 51.9812 55.326C51.9665 55.326 51.4733 54.8438 50.888 54.2549C50.3028 53.6696 49.7323 53.1285 49.6255 53.0549C49.4378 52.9298 49.4047 52.9187 49.1433 52.9187C48.8746 52.9187 48.8562 52.9261 48.6648 53.0697C48.5544 53.1543 47.9913 53.6954 47.4134 54.2733C46.8355 54.8511 46.3496 55.326 46.3312 55.326C46.3091 55.326 45.7901 54.8217 45.1718 54.2107C44.5497 53.596 43.9792 53.0512 43.8982 53.0034C43.7068 52.8893 43.2946 52.8819 43.1253 52.9887C43.0664 53.0255 42.4995 53.5666 41.8738 54.1923C41.2444 54.8143 40.707 55.326 40.6775 55.326C40.6481 55.326 40.1107 54.8143 39.4813 54.1923C38.8556 53.5666 38.2924 53.0255 38.2298 52.9887C38.0605 52.8819 37.6446 52.893 37.4569 53.0034C37.3759 53.0512 36.8054 53.596 36.187 54.207C35.5686 54.8217 35.0459 55.326 35.0275 55.326C35.0055 55.326 34.5196 54.8511 33.9417 54.2733C33.3638 53.6954 32.8007 53.1543 32.6902 53.0697C32.4952 52.9261 32.4841 52.9187 32.2044 52.9187C31.9357 52.9187 31.9062 52.9298 31.7259 53.0549C31.6191 53.1285 31.0523 53.6696 30.4671 54.2585C29.8818 54.8438 29.3886 55.326 29.3739 55.326C29.3555 55.326 28.8475 54.8291 28.2402 54.2254C27.6365 53.6181 27.0697 53.077 26.9814 53.0218C26.8415 52.9335 26.7826 52.9187 26.5397 52.9187C26.2894 52.9187 26.2489 52.9298 26.098 53.0328C26.0096 53.0991 25.4465 53.6402 24.8502 54.2365C24.2539 54.8364 23.7496 55.326 23.7275 55.326C23.6686 55.326 19.8811 51.52 19.8811 51.4612C19.8811 51.4317 20.3633 50.9238 20.9522 50.3385C21.5375 49.7496 22.0675 49.2048 22.1227 49.1239C22.3288 48.8183 22.3325 48.4355 22.1338 48.1595C22.0896 48.1043 21.5669 47.5669 20.9706 46.9706C20.2639 46.2676 19.8811 45.859 19.8811 45.8111C19.8811 45.7633 20.2676 45.3511 20.9854 44.6333C21.5964 44.026 22.1227 43.4775 22.1595 43.4186C22.3252 43.1463 22.3215 42.8076 22.1485 42.5353C22.108 42.4727 21.5706 41.9169 20.9522 41.2948L19.8259 40.1611L20.9338 39.0496C21.5448 38.4349 22.0822 37.8754 22.1301 37.8054C22.3215 37.5294 22.3325 37.1871 22.1595 36.9037C22.1227 36.8411 21.5964 36.2963 20.9854 35.689C20.2676 34.9712 19.8811 34.559 19.8811 34.5111C19.8811 34.4633 20.2492 34.0695 20.9338 33.3885C21.5117 32.8106 22.0344 32.2769 22.097 32.1996C22.3325 31.9052 22.3436 31.5224 22.1227 31.1984C22.0675 31.1175 21.5375 30.5727 20.9522 29.9838C20.3633 29.3985 19.8811 28.8906 19.8811 28.8611C19.8811 28.8317 20.3559 28.3348 20.9338 27.7569C21.5117 27.179 22.0344 26.638 22.0933 26.5496C22.1558 26.465 22.2295 26.3104 22.2589 26.211C22.3068 26.049 22.3068 26.0085 22.2552 25.8245C22.1816 25.5779 22.1595 25.5558 20.8381 24.2344C19.9805 23.3768 19.8443 23.2259 19.8774 23.167C19.8958 23.1302 20.7645 22.2505 21.8062 21.2088C23.1497 19.869 23.7165 19.3279 23.7496 19.3463C23.7791 19.3647 24.2981 19.8727 24.9054 20.4763ZM16.8555 28.2465C18.7217 30.1126 20.2492 31.6585 20.2492 31.6769C20.2492 31.7358 18.6885 33.2781 18.6297 33.2781C18.556 33.2781 11.8202 26.5423 11.8202 26.4686C11.8202 26.4097 13.3625 24.8491 13.4213 24.8491C13.4434 24.8491 14.9857 26.3766 16.8555 28.2465ZM16.8555 33.9149C18.7217 35.781 20.2492 37.3196 20.2492 37.3306C20.2492 37.3711 18.6996 38.8913 18.6407 38.906C18.6039 38.9134 17.4187 37.7539 15.2028 35.5381C13.3404 33.6756 11.8202 32.1407 11.8202 32.1186C11.8202 32.0634 13.3404 30.5285 13.4029 30.5249C13.4324 30.5212 14.9857 32.045 16.8555 33.9149ZM16.8702 39.5722C18.718 41.4384 20.2382 42.9696 20.2455 42.9806C20.275 43.0101 18.6885 44.5781 18.626 44.5781C18.5597 44.5781 11.8202 37.8275 11.8202 37.7576C11.8202 37.7355 12.1625 37.3711 12.5821 36.9515C13.1085 36.4252 13.3735 36.1859 13.4287 36.1859C13.4839 36.1859 14.4667 37.1539 16.8702 39.5722ZM15.4347 43.7941C16.5242 44.8836 17.415 45.7891 17.415 45.8111C17.415 45.859 15.8617 47.4123 15.8139 47.4123C15.766 47.4123 11.8202 43.4665 11.8202 43.4186C11.8202 43.3708 13.3735 41.8175 13.4213 41.8175C13.4398 41.8175 14.3489 42.7083 15.4347 43.7941Z" fill="#FEFAF7" stroke="white" stroke-width="26" mask="url(#path-1-inside-1)"/>
<path d="M10.1353 36.2527L6.84958 39.5265L1.67932 34.4648L4.57852 31.6623L1.67932 28.8114L4.57852 26.0088L1.67932 23.2546L4.57852 20.452L1.67932 17.6011L4.57852 14.7503L1.67932 11.9477L4.57852 9.09682L1.67888 6.10098L6.80125 1.12402L9.65213 3.9749L12.5996 1.12402L15.2089 3.9749L18.0598 1.12402L21.0073 3.9749L23.7132 1.12402L26.4675 3.9749L29.3184 1.12402L32.2176 3.9749L34.8752 1.12406L40.0937 6.10098L36.5664 9.86998" stroke="#FEFAF7" stroke-width="2" stroke-linejoin="round"/>
</svg>
