<svg width="56" height="57" viewBox="0 0 56 57" fill="none" xmlns="http://www.w3.org/2000/svg">
<path d="M47.7516 8.52268C42.4719 3.24313 35.4522 0.335449 27.9857 0.335449C20.5191 0.335449 13.4995 3.24313 8.2197 8.52268C2.94015 13.8024 0.0324707 20.8221 0.0324707 28.2886C0.0324707 33.2137 1.32487 38.032 3.77623 42.2697L0.0324707 56.2418L14.0046 52.4981C18.2423 54.9494 23.0605 56.2418 27.9857 56.2418C35.4522 56.2418 42.4719 53.3341 47.7516 48.0546C53.0312 42.7748 55.9388 35.7552 55.9388 28.2886C55.9388 20.8221 53.0312 13.8024 47.7516 8.52268ZM27.9857 52.9661C23.4263 52.9661 18.9722 51.7125 15.1048 49.3408L14.5047 48.9728L4.66506 51.6093L7.30161 41.7697L6.93363 41.1696C4.56176 37.3021 3.30823 32.848 3.30823 28.2886C3.30823 14.6814 14.3785 3.61121 27.9857 3.61121C41.5929 3.61121 52.6631 14.6814 52.6631 28.2886C52.6631 41.8958 41.5929 52.9661 27.9857 52.9661Z" fill="#A82D2C"/>
<path d="M29.6227 38.9349H26.347V42.2106H29.6227V38.9349Z" fill="#A82D2C"/>
<path d="M27.9852 14.3666C23.4695 14.3666 19.7958 18.0403 19.7958 22.556H23.0715C23.0715 19.8466 25.2758 17.6423 27.9852 17.6423C30.6946 17.6423 32.8988 19.8466 32.8988 22.556C32.8988 23.7659 32.4544 24.929 31.6467 25.8312L26.3473 31.7577V35.659H29.6231V33.0088L34.0882 28.0155C35.4336 26.512 36.1746 24.5733 36.1746 22.556C36.1746 18.0403 32.5008 14.3666 27.9852 14.3666Z" fill="#A82D2C"/>
</svg>
