<svg width="71" height="55" viewBox="0 0 71 55" fill="none" xmlns="http://www.w3.org/2000/svg">
<path d="M70.0109 30.4694L55.8674 15.9684C55.5541 15.3976 54.8154 14.9783 54.3903 14.8022C53.9653 14.6261 53.5095 14.5362 53.0494 14.5377H33.0132V17.292H38.8475V34.795H41.1813V17.292H53.0494C53.2028 17.2919 53.3548 17.322 53.4965 17.3807C53.6383 17.4394 53.7671 17.5254 53.8756 17.6339L55.8674 19.6257H50.5162C49.8972 19.6257 49.3036 19.8716 48.866 20.3093C48.4283 20.7469 48.1824 21.3405 48.1824 21.9595V32.4612C48.1824 33.0802 48.4283 33.6738 48.866 34.1114C49.3036 34.5491 49.8972 34.795 50.5162 34.795H68.0191V44.1299C68.0191 44.4393 67.8962 44.7361 67.6773 44.955C67.4585 45.1738 67.1617 45.2967 66.8522 45.2967H64.4252C64.1462 43.3541 63.1761 41.5771 61.693 40.2917C60.2099 39.0064 58.3131 38.2988 56.3505 38.2988C54.3879 38.2988 52.4911 39.0064 51.0079 40.2917C49.5248 41.5771 48.5548 43.3541 48.2758 45.2967H31.753C31.474 43.3541 30.504 41.5771 29.0209 40.2917C27.5377 39.0064 25.6409 38.2988 23.6783 38.2988C21.7157 38.2988 19.8189 39.0064 18.3358 40.2917C16.8526 41.5771 15.8826 43.3541 15.6036 45.2967H13.1766C12.8671 45.2967 12.5703 45.1738 12.3515 44.955C12.1326 44.7361 12.0097 44.4393 12.0097 44.1299V33.6281H9.67597V44.1299C9.67597 45.0583 10.0448 45.9487 10.7013 46.6051C11.3578 47.2616 12.2481 47.6304 13.1766 47.6304H15.6036C15.8583 49.4047 16.3398 50.55 17.3119 51.7062H0.34119L0.341064 54.6316H56.3505C58.3126 54.6279 60.2078 53.9186 61.6903 52.6332C63.1727 51.3479 64.1434 49.5722 64.4252 47.6304H66.8522C67.7807 47.6304 68.671 47.2616 69.3275 46.6051C69.984 45.9487 70.3528 45.0583 70.3528 44.1299V31.2944C70.3528 30.9849 70.2298 30.6882 70.0109 30.4694ZM17.844 46.4636C17.844 45.3097 18.1862 44.1817 18.8273 43.2222C19.4683 42.2628 20.3795 41.515 21.4456 41.0734C22.5117 40.6318 23.6848 40.5163 24.8165 40.7414C25.9483 40.9665 26.9879 41.5222 27.8038 42.3381C28.6197 43.154 29.1754 44.1936 29.4005 45.3254C29.6256 46.4571 29.5101 47.6302 29.0685 48.6963C28.6269 49.7624 27.8791 50.6736 26.9197 51.3146C25.9602 51.9557 24.8322 52.2979 23.6783 52.2979C22.1315 52.296 20.6486 51.6808 19.5549 50.587C18.4611 49.4933 17.8459 48.0104 17.844 46.4636ZM29.9433 51.7062C30.5554 50.9785 31.4983 49.4047 31.753 47.6304H48.2758C48.5305 49.4047 49.0259 50.7661 49.998 51.7062H29.9433ZM56.3505 52.2979C55.1966 52.2979 54.0686 51.9557 53.1091 51.3146C52.1497 50.6736 51.4019 49.7624 50.9603 48.6963C50.5187 47.6302 50.4031 46.4571 50.6283 45.3254C50.8534 44.1936 51.409 43.154 52.225 42.3381C53.0409 41.5222 54.0805 40.9665 55.2123 40.7414C56.344 40.5163 57.5171 40.6318 58.5832 41.0734C59.6493 41.515 60.5604 42.2628 61.2015 43.2222C61.8426 44.1817 62.1848 45.3097 62.1848 46.4636C62.1829 48.0104 61.5677 49.4933 60.4739 50.587C59.3802 51.6808 57.8973 52.296 56.3505 52.2979ZM50.5162 31.7775V21.9595H58.2011L68.0191 31.7775H50.5162Z" fill="#A82D2C"/>
<path d="M24.8449 45.2967H22.5112V47.6304H24.8449V45.2967Z" fill="#A82D2C"/>
<path d="M57.5178 45.2967H55.1841V47.6304H57.5178V45.2967Z" fill="#A82D2C"/>
<path d="M6.17538 41.7961H0.341064V44.1298H6.17538V41.7961Z" fill="#A82D2C"/>
<path d="M6.17581 37.1287H2.67522V39.4624H6.17581V37.1287Z" fill="#A82D2C"/>
<path d="M6.1754 32.4612H3.84167V34.7949H6.1754V32.4612Z" fill="#A82D2C"/>
<path d="M15.5117 31.294C18.5119 31.294 21.4447 30.4043 23.9393 28.7375C26.4338 27.0707 28.3781 24.7016 29.5262 21.9298C30.6744 19.158 30.9748 16.108 30.3895 13.1654C29.8042 10.2229 28.3594 7.51999 26.238 5.39853C24.1165 3.27708 21.4136 1.83235 18.4711 1.24705C15.5285 0.661738 12.4785 0.962139 9.70671 2.11026C6.9349 3.25838 4.56579 5.20266 2.89897 7.69723C1.23216 10.1918 0.342499 13.1246 0.342499 16.1248C0.347131 20.1465 1.9468 24.0022 4.79058 26.8459C7.63435 29.6897 11.49 31.2894 15.5117 31.294ZM15.5117 3.2893C18.0503 3.2893 20.5319 4.04209 22.6427 5.45247C24.7535 6.86285 26.3987 8.86748 27.3702 11.2129C28.3417 13.5582 28.5958 16.139 28.1006 18.6289C27.6053 21.1187 26.3829 23.4058 24.5878 25.2009C22.7927 26.9959 20.5056 28.2184 18.0158 28.7137C15.526 29.2089 12.9452 28.9547 10.5998 27.9832C8.25441 27.0117 6.24978 25.3666 4.83939 23.2558C3.42901 21.145 2.67622 18.6634 2.67622 16.1248C2.68024 12.7218 4.03384 9.45941 6.44009 7.05316C8.84634 4.64691 12.1088 3.29331 15.5117 3.2893Z" fill="#A82D2C"/>
<path d="M15.5103 26.6269C15.8198 26.6268 16.1165 26.5038 16.3353 26.285C17.0868 25.5335 23.6784 18.7972 23.6784 13.7914C23.6784 11.6251 22.8178 9.54752 21.286 8.01572C19.7542 6.48391 17.6766 5.62335 15.5103 5.62335C13.344 5.62335 11.2665 6.48391 9.73466 8.01572C8.20286 9.54752 7.3423 11.6251 7.3423 13.7914C7.3423 18.7972 13.9339 25.5335 14.6854 26.285C14.9041 26.5038 15.2009 26.6268 15.5103 26.6269ZM15.5103 7.95708C17.0571 7.95893 18.54 8.57421 19.6338 9.66795C20.7275 10.7617 21.3428 12.2446 21.3447 13.7914C21.3447 16.7856 17.6725 21.4122 15.5103 23.7692C13.3481 21.4122 9.67603 16.7856 9.67603 13.7914C9.67788 12.2446 10.2932 10.7617 11.3869 9.66795C12.4806 8.57421 13.9636 7.95893 15.5103 7.95708Z" fill="#A82D2C"/>
<path d="M19.0114 13.7914C19.0114 13.0991 18.8061 12.4223 18.4214 11.8466C18.0368 11.2709 17.49 10.8223 16.8504 10.5573C16.2108 10.2923 15.5069 10.223 14.8279 10.3581C14.1488 10.4932 13.5251 10.8266 13.0355 11.3161C12.5459 11.8057 12.2125 12.4294 12.0775 13.1085C11.9424 13.7875 12.0117 14.4914 12.2767 15.131C12.5416 15.7707 12.9903 16.3174 13.566 16.7021C14.1416 17.0867 14.8184 17.292 15.5108 17.292C16.4392 17.292 17.3296 16.9232 17.9861 16.2667C18.6426 15.6102 19.0114 14.7198 19.0114 13.7914ZM14.3439 13.7914C14.3439 13.5606 14.4124 13.335 14.5406 13.1431C14.6688 12.9513 14.851 12.8017 15.0642 12.7134C15.2775 12.6251 15.5121 12.602 15.7384 12.647C15.9648 12.692 16.1727 12.8031 16.3359 12.9663C16.4991 13.1295 16.6102 13.3374 16.6552 13.5638C16.7002 13.7901 16.6771 14.0247 16.5888 14.238C16.5005 14.4512 16.3509 14.6334 16.1591 14.7616C15.9672 14.8899 15.7416 14.9583 15.5108 14.9583C15.2013 14.9583 14.9045 14.8354 14.6857 14.6165C14.4669 14.3977 14.3439 14.1009 14.3439 13.7914Z" fill="#A82D2C"/>
<path d="M49.3497 37.1287H44.6822V39.4624H49.3497V37.1287Z" fill="#A82D2C"/>
</svg>
