<svg width="68" height="67" viewBox="0 0 68 67" fill="none" xmlns="http://www.w3.org/2000/svg">
<path d="M34.9932 64.3622C34.7518 64.1207 34.4167 63.9818 34.0752 63.9818C33.7335 63.9818 33.3985 64.1207 33.1571 64.3622C32.9156 64.6038 32.7766 64.9388 32.7766 65.2803C32.7766 65.6219 32.9154 65.9569 33.1571 66.1984C33.3985 66.44 33.7335 66.5789 34.0752 66.5789C34.4167 66.5789 34.7518 66.44 34.9932 66.1984C35.2347 65.9569 35.3738 65.6219 35.3738 65.2803C35.3738 64.9388 35.2348 64.6038 34.9932 64.3622Z" fill="#A82D2C"/>
<path d="M60.4132 42.5644L56.0813 41.5296V39.8113C58.4858 38.2916 60.0872 35.6114 60.0872 32.5629V27.7234C60.0872 22.9975 56.2424 19.1527 51.5163 19.1527C48.9669 19.1527 46.6753 20.2729 45.1039 22.0453C43.7276 17.2791 39.3258 13.7833 34.1225 13.7833H34.1224C28.9106 13.7833 24.5028 17.2902 23.1342 22.0681C21.5624 20.2825 19.2624 19.1527 16.7021 19.1527C11.976 19.1527 8.13112 22.9976 8.13112 27.7234V32.5629C8.13112 35.6115 9.73254 38.2917 12.137 39.8113V41.5296L7.80517 42.5644C3.7189 43.5405 0.865128 47.1561 0.865128 51.3569V60.0862C0.865128 60.8034 1.44664 61.3847 2.16372 61.3847H12.5476V65.2805C12.5476 65.9977 13.1291 66.5791 13.8462 66.5791H28.0922C28.8093 66.5791 29.3908 65.9977 29.3908 65.2805C29.3908 64.5633 28.8093 63.9819 28.0922 63.9819H22.2949V58.2666C22.2949 57.5494 21.7134 56.968 20.9964 56.968C20.2793 56.968 19.6978 57.5494 19.6978 58.2666V63.9819H15.1447V58.123C15.1447 53.7189 18.1358 49.9264 22.4187 48.9001L28.8055 47.3696L32.9151 56.7189C33.1223 57.1904 33.5886 57.495 34.1037 57.495H34.1038C34.6188 57.495 35.0853 57.1906 35.2925 56.7191L39.3979 47.3834L45.7661 48.9047C50.0529 49.9286 53.0467 53.7219 53.0467 58.1291V59.5782C52.9803 59.7342 52.9434 59.9058 52.9434 60.086C52.9434 60.2663 52.9803 60.438 53.0467 60.5939V63.9819H48.5202V58.2666C48.5202 57.5494 47.9387 56.968 47.2216 56.968C46.5045 56.968 45.923 57.5494 45.923 58.2666V63.9819H39.5632C38.8461 63.9819 38.2646 64.5633 38.2646 65.2805C38.2646 65.9977 38.8461 66.5791 39.5632 66.5791H54.3453C55.0623 66.5791 55.6439 65.9977 55.6439 65.2805V61.3847H66.0542C66.7713 61.3847 67.3528 60.8034 67.3528 60.0862V51.3569C67.3528 47.1561 64.4991 43.5405 60.4132 42.5644ZM51.5162 21.7499C54.81 21.7499 57.4899 24.4297 57.4899 27.7234V28.0449V28.1754H53.7756C50.9698 28.1754 48.2128 27.4388 45.783 26.0424C46.511 23.5644 48.8056 21.7499 51.5162 21.7499ZM45.5424 32.3509C45.5469 32.2183 45.5502 28.8593 45.5502 28.8593C48.1031 30.1148 50.9175 30.7727 53.7757 30.7727H57.4901V32.563C57.4899 35.8567 54.81 38.5364 51.5162 38.5364C48.2223 38.5364 45.5424 35.8566 45.5424 32.5629V32.3509ZM25.2916 25.211C25.2916 20.3418 29.253 16.3806 34.1224 16.3806C38.9915 16.3806 42.953 20.342 42.953 25.211V25.3804L38.1333 22.5488C37.5865 22.2274 36.8876 22.3483 36.4802 22.8344C34.6076 25.069 31.8614 26.3507 28.9457 26.3507H25.2916V25.211ZM10.728 28.0451V27.7234C10.728 24.4295 13.4079 21.7499 16.7018 21.7499C19.4123 21.7499 21.7069 23.5644 22.4348 26.0425C20.005 27.4388 17.2481 28.1756 14.4423 28.1756H10.728V28.0451ZM10.728 32.5629V30.7726H14.4424C17.3034 30.7726 20.1207 30.1135 22.6756 28.8555V32.5629C22.6756 35.8567 19.9957 38.5364 16.7018 38.5364C13.4079 38.5364 10.728 35.8566 10.728 32.5629ZM12.5476 58.123V58.7876H8.65666V53.0181C8.65666 52.3009 8.07515 51.7195 7.35807 51.7195C6.64099 51.7195 6.05948 52.3009 6.05948 53.0181V58.7876H3.4623V51.3569C3.4623 48.363 5.49615 45.7862 8.40824 45.0906L12.5245 44.1072L15.211 50.5423C13.5308 52.6297 12.5476 55.2754 12.5476 58.123ZM16.7021 47.3722L14.7299 42.6481C14.7321 42.617 14.7339 42.586 14.7339 42.5546V40.903C15.3662 41.0521 16.0246 41.1335 16.7018 41.1335C17.376 41.1335 18.0313 41.0528 18.6611 40.905V42.4724C18.6597 42.4968 18.659 42.5212 18.659 42.5456C18.659 42.5865 18.6629 42.6272 18.6668 42.6678L16.7021 47.3722ZM21.8136 46.3745C21.0467 46.5583 20.3139 46.8139 19.6182 47.1292L20.883 44.1007L24.9999 45.0872C25.3192 45.1637 25.6304 45.2649 25.9315 45.3877L21.8136 46.3745ZM28.2592 43.6679C27.444 43.1622 26.5495 42.7878 25.6052 42.5616L21.2583 41.52V39.8169C22.3394 39.1355 23.2576 38.2198 23.9421 37.1409C24.9211 39.0536 26.4237 40.6553 28.2592 41.757V43.6679ZM37.3467 45.5956L34.104 52.9698L30.8564 45.5812V42.903C31.8916 43.2123 32.9878 43.3792 34.1222 43.3792C35.2416 43.3792 36.3237 43.2166 37.3467 42.9152V45.5956ZM34.1224 40.7821C29.2529 40.782 25.2916 36.8207 25.2916 31.9516V28.948H28.9455C32.26 28.948 35.4015 27.638 37.7223 25.3196L42.9453 28.388V32.2564C42.7838 36.9847 38.8895 40.7821 34.1224 40.7821ZM39.9439 41.7814H39.9441C41.7909 40.6834 43.304 39.0806 44.2906 37.1637C44.9736 38.2326 45.8864 39.1402 46.9597 39.8169V41.52L42.6128 42.5616C41.6627 42.7892 40.7632 43.167 39.9439 43.6773V41.7814ZM46.3695 46.3788L42.2627 45.3976C42.5712 45.2703 42.8903 45.1658 43.2181 45.0872L47.325 44.1031L48.595 47.1452C47.8902 46.8242 47.1473 46.5646 46.3695 46.3788ZM49.5484 42.6872C49.5536 42.64 49.5574 42.5926 49.5574 42.5451C49.5574 42.533 49.5572 42.5208 49.5569 42.5087V40.905C50.1867 41.0529 50.8419 41.1335 51.5162 41.1335C52.1934 41.1335 52.8518 41.0521 53.484 40.9029V42.5544C53.484 42.5781 53.4857 42.6013 53.487 42.6247L51.5043 47.3722L49.5484 42.6872ZM64.7557 58.7876H62.1585V53.0181C62.1585 52.3009 61.577 51.7195 60.8599 51.7195C60.1428 51.7195 59.5613 52.3009 59.5613 53.0181V58.7876H55.6439V58.1292C55.6439 55.2854 54.6639 52.6433 52.9885 50.5578L55.6835 44.1048L59.8097 45.0906C62.7218 45.7862 64.7557 48.363 64.7557 51.3569V58.7876Z" fill="#A82D2C"/>
<path d="M30.6715 30.5018C30.4301 30.2602 30.0951 30.1213 29.7535 30.1213C29.412 30.1213 29.077 30.2602 28.8354 30.5018C28.5939 30.7433 28.455 31.0783 28.455 31.4199C28.455 31.7614 28.5938 32.0964 28.8354 32.338C29.0771 32.5795 29.412 32.7185 29.7535 32.7185C30.0964 32.7185 30.4301 32.5795 30.6715 32.338C30.9144 32.0964 31.0521 31.7614 31.0521 31.4199C31.0521 31.0783 30.9144 30.7433 30.6715 30.5018Z" fill="#A82D2C"/>
<path d="M39.3551 30.5018C39.1137 30.2602 38.7787 30.1213 38.4372 30.1213C38.0956 30.1213 37.7606 30.2602 37.5191 30.5018C37.2775 30.7433 37.1386 31.0783 37.1386 31.4199C37.1386 31.7614 37.2774 32.0964 37.5191 32.338C37.7607 32.5795 38.0956 32.7185 38.4372 32.7185C38.7787 32.7185 39.1137 32.5795 39.3551 32.338C39.598 32.0964 39.7357 31.7614 39.7357 31.4199C39.7357 31.0783 39.598 30.7433 39.3551 30.5018Z" fill="#A82D2C"/>
<path d="M36.6084 34.8734C36.1011 34.3663 35.2791 34.3663 34.7718 34.8734C34.3878 35.2574 33.763 35.2574 33.379 34.8734C32.8718 34.3663 32.0498 34.3663 31.5424 34.8734C31.0353 35.3805 31.0353 36.2027 31.5424 36.71C32.2408 37.4082 33.158 37.7574 34.0753 37.7574C34.9927 37.7574 35.9098 37.4083 36.6082 36.71C37.1155 36.2027 37.1155 35.3805 36.6084 34.8734Z" fill="#A82D2C"/>
<path d="M54.559 7.10419H53.6683C52.9512 7.10419 52.3697 7.68556 52.3697 8.40277C52.3697 9.11998 52.9512 9.70136 53.6683 9.70136H54.559C55.2761 9.70136 55.8576 9.11998 55.8576 8.40277C55.8576 7.68556 55.2761 7.10419 54.559 7.10419Z" fill="#A82D2C"/>
<path d="M60.8599 7.10419H59.9692C59.2521 7.10419 58.6706 7.68556 58.6706 8.40277C58.6706 9.11998 59.2519 9.70136 59.9692 9.70136H60.8599C61.5769 9.70136 62.1584 9.11998 62.1584 8.40277C62.1584 7.68556 61.5769 7.10419 60.8599 7.10419Z" fill="#A82D2C"/>
<path d="M57.2642 9.80927C56.5472 9.80927 55.9657 10.3906 55.9657 11.1079V11.9986C55.9657 12.7158 56.547 13.2971 57.2642 13.2971C57.9813 13.2971 58.5628 12.7158 58.5628 11.9986V11.1079C58.5628 10.3906 57.9813 9.80927 57.2642 9.80927Z" fill="#A82D2C"/>
<path d="M57.2642 3.508C56.5472 3.508 55.9657 4.08937 55.9657 4.80658V5.69728C55.9657 6.41449 56.547 6.99587 57.2642 6.99587C57.9813 6.99587 58.5628 6.41449 58.5628 5.69728V4.80658C58.5628 4.08937 57.9813 3.508 57.2642 3.508Z" fill="#A82D2C"/>
<path d="M8.17645 7.10419H7.28588C6.5688 7.10419 5.98729 7.68556 5.98729 8.40277C5.98729 9.11998 6.5688 9.70136 7.28588 9.70136H8.17645C8.89353 9.70136 9.47504 9.11998 9.47504 8.40277C9.47504 7.68556 8.89353 7.10419 8.17645 7.10419Z" fill="#A82D2C"/>
<path d="M14.4773 7.10419H13.5867C12.8697 7.10419 12.2881 7.68556 12.2881 8.40277C12.2881 9.11998 12.8695 9.70136 13.5867 9.70136H14.4773C15.1944 9.70136 15.7759 9.11998 15.7759 8.40277C15.7759 7.68556 15.1944 7.10419 14.4773 7.10419Z" fill="#A82D2C"/>
<path d="M10.8816 9.80927C10.1645 9.80927 9.58304 10.3906 9.58304 11.1079V11.9986C9.58304 12.7158 10.1644 13.2971 10.8816 13.2971C11.5987 13.2971 12.1802 12.7158 12.1802 11.9986V11.1079C12.1802 10.3906 11.5987 9.80927 10.8816 9.80927Z" fill="#A82D2C"/>
<path d="M10.8816 3.508C10.1645 3.508 9.58304 4.08937 9.58304 4.80658V5.69728C9.58304 6.41449 10.1644 6.99587 10.8816 6.99587C11.5987 6.99587 12.1802 6.41449 12.1802 5.69728V4.80658C12.1802 4.08937 11.5987 3.508 10.8816 3.508Z" fill="#A82D2C"/>
<path d="M34.109 5.03748C33.3919 5.03748 32.8104 5.61885 32.8104 6.33606V9.75265C32.8104 10.4699 33.3919 11.0512 34.109 11.0512C34.826 11.0512 35.4076 10.4699 35.4076 9.75265V6.33606C35.4076 5.61885 34.826 5.03748 34.109 5.03748Z" fill="#A82D2C"/>
<path d="M35.0269 0.472283C34.7855 0.230746 34.4505 0.0917969 34.109 0.0917969C33.7674 0.0917969 33.4324 0.230746 33.1909 0.472283C32.9492 0.71382 32.8104 1.04886 32.8104 1.39038C32.8104 1.73191 32.9492 2.06695 33.1909 2.30849C33.4325 2.55002 33.7674 2.68897 34.109 2.68897C34.4505 2.68897 34.7855 2.55002 35.0269 2.30849C35.2686 2.06695 35.4076 1.73191 35.4076 1.39038C35.4076 1.04886 35.2686 0.71382 35.0269 0.472283Z" fill="#A82D2C"/>
<path d="M29.558 5.30125L27.6577 3.40089C27.1505 2.89379 26.3284 2.89379 25.8211 3.40089C25.314 3.90799 25.314 4.73026 25.8211 5.23748L27.7216 7.13784C27.9752 7.39145 28.3075 7.5182 28.6398 7.5182C28.9721 7.5182 29.3044 7.39145 29.558 7.13784C30.0651 6.63074 30.0651 5.80847 29.558 5.30125Z" fill="#A82D2C"/>
<path d="M42.3965 3.32936C41.8893 2.82226 41.0673 2.82226 40.56 3.32936L38.5961 5.29321C38.089 5.80031 38.089 6.62258 38.5961 7.12981C38.8498 7.38342 39.182 7.51016 39.5145 7.51016C39.8469 7.51016 40.1791 7.38342 40.4327 7.12981L42.3965 5.16595C42.9036 4.65885 42.9036 3.83659 42.3965 3.32936Z" fill="#A82D2C"/>
</svg>
