<svg width="59" height="55" viewBox="0 0 59 55" fill="none" xmlns="http://www.w3.org/2000/svg">
<path d="M45.3966 42.5921C43.8275 42.5921 42.2739 42.5921 40.6776 42.5921C40.6672 42.7536 40.6504 42.8939 40.65 43.0342C40.6476 44.26 40.6484 45.4857 40.6484 46.7114C40.6484 46.8182 40.6504 46.9245 40.6476 47.0313C40.6224 48.0459 40.014 48.6684 39.0013 48.7147C38.9082 48.7191 38.8146 48.7171 38.7215 48.7171C32.1926 48.7171 25.6642 48.7195 19.1353 48.7107C18.8091 48.7103 18.4597 48.6748 18.1614 48.5552C17.451 48.271 17.2215 47.6533 17.2159 46.9421C17.2051 45.6496 17.2127 44.3575 17.2123 43.065C17.2123 42.9982 17.2091 42.9315 17.2143 42.8651C17.2303 42.6644 17.1432 42.5653 16.9385 42.5689C16.7786 42.5717 16.6187 42.5673 16.4587 42.5673C11.6753 42.5673 6.89234 42.5709 2.10893 42.5593C1.75752 42.5585 1.37973 42.5053 1.0603 42.369C0.516595 42.1371 0.253938 41.6562 0.190772 41.0733C0.17518 40.9282 0.179977 40.7807 0.179977 40.6339C0.179577 27.9232 0.179977 15.2121 0.177979 2.50142C0.177979 2.13842 0.189572 1.77941 0.356281 1.44839C0.665714 0.833528 1.20462 0.599654 1.85747 0.565673C1.9902 0.558876 2.12372 0.562476 2.25725 0.562476C20.058 0.562476 37.8583 0.562476 55.6591 0.562476C56.1548 0.562476 56.6477 0.576866 57.0619 0.907487C57.3626 1.14776 57.5788 1.44559 57.6368 1.83218C57.67 2.05486 57.6844 2.28274 57.6844 2.50822C57.6864 12.781 57.6864 23.0535 57.6848 33.3263C57.6848 33.6869 57.7092 34.0255 57.8823 34.3665C58.1237 34.8423 58.0962 35.352 57.8347 35.8257C57.72 36.0336 57.6836 36.2435 57.684 36.475C57.6884 37.8339 57.686 39.1931 57.686 40.552C57.686 40.6719 57.7024 40.795 57.6808 40.911C57.5928 41.3831 57.6044 41.8385 57.7084 42.3178C57.8283 42.8715 57.604 43.3768 57.1675 43.7438C56.5762 44.2408 55.9749 44.7281 55.354 45.1867C54.6272 45.7232 53.6682 45.586 53.0997 44.8868C52.5456 44.2048 52.0011 43.5152 51.4618 42.8215C51.3174 42.6356 51.1551 42.5561 50.9185 42.5625C50.3859 42.5761 49.8526 42.5737 49.3197 42.5637C49.1082 42.5597 48.9691 42.6312 48.8692 42.8199C48.7632 43.0194 48.6409 43.2113 48.511 43.3964C48.126 43.9461 47.5871 44.204 46.9262 44.124C46.2262 44.0393 45.7732 43.6175 45.5422 42.9555C45.5114 42.8675 45.4862 42.7776 45.4558 42.6896C45.447 42.666 45.4286 42.6448 45.3966 42.5921ZM42.4219 31.4321C42.3179 31.0323 42.232 30.6989 42.1444 30.3659C41.9617 29.6711 41.7466 28.9827 41.6035 28.2798C41.4156 27.3579 42.106 26.4804 43.0359 26.3745C43.4841 26.3233 43.8711 26.4708 44.2533 26.6759C46.9158 28.1047 49.5844 29.5228 52.2413 30.9624C52.839 31.2862 53.4295 31.5401 54.1307 31.4645C54.5069 31.4241 54.5361 31.4281 54.5453 31.0507C54.5461 31.0107 54.5453 30.9708 54.5453 30.9308C54.5453 22.0292 54.5453 13.1281 54.5453 4.22649C54.5453 4.14653 54.5437 4.06657 54.5445 3.98662C54.5469 3.79272 54.4621 3.68478 54.2582 3.68958C54.1915 3.69118 54.1251 3.69038 54.0583 3.69038C37.3482 3.69038 20.6381 3.68998 3.92795 3.69158C3.37225 3.69158 3.31588 3.56045 3.31588 4.29605C3.31868 13.144 3.31748 21.992 3.31788 30.8404C3.31788 30.9604 3.31188 31.0811 3.32347 31.1998C3.33067 31.2754 3.36585 31.3482 3.39104 31.4313C16.3912 31.4321 29.3773 31.4321 42.4219 31.4321ZM43.2838 34.5932C43.0775 34.5932 42.9068 34.5932 42.7361 34.5932C29.7703 34.5932 16.8046 34.5932 3.83919 34.5932C3.77243 34.5932 3.70566 34.5908 3.6393 34.5936C3.37065 34.6048 3.33786 34.6352 3.31907 34.8862C3.31508 34.9394 3.31788 34.993 3.31788 35.0462C3.31788 36.3654 3.31708 37.6847 3.31868 39.004C3.31908 39.4438 3.32187 39.4438 3.76243 39.4458C3.77563 39.4458 3.78922 39.4458 3.80241 39.4458C17.2343 39.4458 30.6666 39.4462 44.0986 39.4462C44.2425 39.4462 44.3864 39.4462 44.5911 39.4462C44.1489 37.8027 43.7212 36.2151 43.2838 34.5932ZM43.3386 28.0568C43.3106 28.0783 43.2826 28.0999 43.2546 28.1215C44.5367 32.8773 45.8188 37.6332 47.1009 42.389C47.1285 42.3922 47.1565 42.3954 47.1841 42.3986C48.0648 40.9873 48.9455 39.5765 49.851 38.1257C51.383 40.0626 52.8754 41.9492 54.3874 43.8614C54.9547 43.41 55.504 42.9731 56.0872 42.5089C54.5409 40.6267 53.0109 38.7645 51.4526 36.868C52.3149 36.5493 53.1165 36.2683 53.9064 35.9569C54.698 35.6446 55.5132 35.3892 56.3515 35.0246C51.9659 32.6762 47.6522 30.3667 43.3386 28.0568ZM28.9504 45.5856C30.4951 45.5856 32.0403 45.5856 33.5851 45.5856C34.7704 45.5856 35.9558 45.5876 37.1411 45.5848C37.4817 45.584 37.5045 45.5613 37.5065 45.2222C37.5101 44.4631 37.5101 43.7039 37.5065 42.9447C37.5049 42.5857 37.4873 42.5741 37.1135 42.5673C37.0736 42.5665 37.0336 42.5673 36.9936 42.5673C31.6265 42.5673 26.259 42.5673 20.8919 42.5673C20.7988 42.5673 20.7056 42.5693 20.6121 42.5689C20.435 42.5681 20.3398 42.6456 20.3402 42.8323C20.3418 43.6579 20.3414 44.4838 20.3394 45.3094C20.339 45.4881 20.415 45.5852 20.6001 45.584C20.7064 45.5836 20.8132 45.5852 20.9195 45.5852C23.5965 45.5856 26.2734 45.5856 28.9504 45.5856ZM54.5169 37.5092C54.399 37.5568 54.3226 37.588 54.2051 37.6356C54.3126 37.7419 54.3938 37.8227 54.5433 37.9706C54.5313 37.7599 54.5253 37.6535 54.5169 37.5092Z" fill="#A82D2C"/>
<path d="M28.9509 51.4268C34.2533 51.4268 39.5556 51.4268 44.8579 51.4268C45.3424 51.4268 45.807 51.4792 46.2172 51.787C46.9684 52.3511 46.9712 53.6164 46.2272 54.1881C45.8902 54.4471 45.5084 54.5155 45.109 54.5515C44.9898 54.5623 44.8695 54.5547 44.7496 54.5547C34.2117 54.5547 23.6734 54.5555 13.1355 54.5515C12.8449 54.5515 12.5526 54.5127 12.2636 54.4739C11.6403 54.39 11.0674 53.7219 11.0758 52.9759C11.0846 52.2252 11.6543 51.5967 12.252 51.5075C12.5402 51.4648 12.8333 51.4304 13.1243 51.43C18.3999 51.4256 23.6754 51.4268 28.9509 51.4268Z" fill="#A82D2C"/>
<path d="M18.6281 10.1C18.1896 10.1 17.7786 10.1 17.368 10.1C17.0618 10.1 16.7548 10.1076 16.4489 10.0972C15.9208 10.0788 15.5366 9.69582 15.5238 9.1885C15.5106 8.67877 15.8768 8.27779 16.3994 8.23182C16.4789 8.22502 16.5589 8.22542 16.6388 8.22542C17.478 8.22502 18.3175 8.22262 19.1567 8.22582C19.8283 8.22822 20.0937 8.42771 20.2856 9.06537C20.4931 9.75339 20.6978 10.4426 20.9053 11.1306C20.9393 11.2438 20.9813 11.3549 21.0284 11.4944C21.2091 11.4944 21.3806 11.4944 21.5518 11.4944C26.5874 11.4944 31.6235 11.4944 36.6592 11.4944C36.8055 11.4944 36.9526 11.4892 37.0985 11.4996C37.7294 11.5452 38.112 12.0294 37.9992 12.6546C37.8813 13.3095 37.7478 13.9615 37.621 14.6152C37.2289 16.6409 36.8391 18.667 36.4433 20.6919C36.3197 21.3251 36.0755 21.539 35.4278 21.6182C32.0045 22.0355 28.5811 22.4533 25.1574 22.8699C24.6153 22.9358 24.0724 22.9934 23.5307 23.0598C23.2388 23.0954 23.1781 23.1705 23.1409 23.5075C23.1085 23.7998 23.1597 23.9361 23.4307 23.9881C23.7794 24.0548 24.1439 24.0968 24.497 24.0748C25.6267 24.0033 26.7533 23.8877 27.8823 23.8062C30.1943 23.6391 32.5062 23.4739 34.8266 23.4955C35.0396 23.4975 35.2543 23.4995 35.465 23.5267C35.8476 23.5759 36.1131 23.8969 36.1031 24.2731C36.0931 24.6489 35.8112 24.9551 35.4246 24.9807C35.1864 24.9963 34.9453 24.9647 34.7058 24.9735C33.0955 25.0315 31.4836 25.0707 29.8752 25.163C28.2401 25.257 26.6074 25.4005 24.9747 25.532C24.4694 25.5728 23.966 25.6384 23.4635 25.5284C23.256 25.4829 23.0453 25.4397 22.8479 25.3649C21.9607 25.0303 21.4974 24.2367 21.6681 23.3016C21.7321 22.9518 21.8416 22.6008 21.9911 22.2786C22.1139 22.0139 22.1159 21.7881 22.0347 21.5178C21.0288 18.1648 20.0326 14.809 19.0335 11.4545C18.904 11.0207 18.7741 10.5877 18.6281 10.1ZM26.1936 16.3894C26.1936 15.3699 26.1936 14.3929 26.1936 13.3954C24.6549 13.3954 23.1445 13.3954 21.5801 13.3954C21.8808 14.4085 22.1738 15.3955 22.4693 16.3894C23.7202 16.3894 24.9387 16.3894 26.1936 16.3894ZM30.9675 17.3193C29.6782 17.3193 28.4212 17.3193 27.1695 17.3193C27.0824 17.8102 27.1051 20.4336 27.1991 20.7206C28.4484 20.5687 29.7009 20.4164 30.9678 20.2621C30.9674 19.2746 30.9675 18.3191 30.9675 17.3193ZM27.1443 16.3546C27.5877 16.441 30.6828 16.4238 30.9563 16.3402C30.9563 15.3615 30.9563 14.3849 30.9563 13.4014C29.6714 13.4014 28.4156 13.4014 27.1443 13.4014C27.1443 14.4053 27.1443 15.3823 27.1443 16.3546ZM31.9213 13.399C31.8358 13.8792 31.855 16.1087 31.9497 16.4082C33.0799 16.3958 34.2181 16.4294 35.3607 16.3878C35.5562 15.3687 35.7429 14.3933 35.9336 13.399C34.5667 13.399 33.2418 13.399 31.9213 13.399ZM22.7447 17.3153C23.1277 18.601 23.5015 19.8547 23.8797 21.1232C24.6833 21.0237 25.4404 20.9297 26.1828 20.8378C26.2576 20.2293 26.2348 17.6207 26.1561 17.3153C25.0367 17.3153 23.9129 17.3153 22.7447 17.3153ZM31.8918 20.1502C32.7857 20.0434 33.6284 19.9391 34.4723 19.8455C34.6511 19.8255 34.7206 19.7428 34.7494 19.5729C34.8182 19.1671 34.9045 18.7641 34.9817 18.3599C35.0456 18.0229 35.106 17.6855 35.168 17.3493C34.7234 17.2601 32.1744 17.2773 31.8922 17.3653C31.8918 18.2768 31.8918 19.1899 31.8918 20.1502Z" fill="#A82D2C"/>
<path d="M21.2276 28.1978C21.2288 27.1528 22.0615 26.3213 23.1062 26.3225C24.1452 26.3232 24.9867 27.1656 24.9855 28.2034C24.9843 29.2381 24.1368 30.0828 23.1006 30.0812C22.0599 30.0796 21.2264 29.2413 21.2276 28.1978Z" fill="#A82D2C"/>
<path d="M31.9368 28.185C31.9428 27.1404 32.7792 26.316 33.8266 26.3224C34.8621 26.3288 35.7052 27.1828 35.6956 28.2162C35.686 29.2496 34.8321 30.088 33.7958 30.0816C32.7564 30.0748 31.9308 29.2324 31.9368 28.185Z" fill="#A82D2C"/>
</svg>