<svg width="57" height="56" viewBox="0 0 57 56" fill="none" xmlns="http://www.w3.org/2000/svg">
<g clip-path="url(#clip0)">
<path d="M37.9998 36.4208C44.0033 27.2548 43.2486 28.3984 43.4216 28.1594C45.6073 25.1598 46.7626 21.6294 46.7626 17.9496C46.7626 8.19115 38.6238 0.152344 28.5811 0.152344C18.5711 0.152344 10.3996 8.17528 10.3996 17.9496C10.3996 21.627 11.5791 25.2499 13.8365 28.2899L19.1622 36.4209C13.4681 37.2723 3.78816 39.8094 3.78816 45.3961C3.78816 47.4326 5.15431 50.3348 11.6626 52.5964C16.2071 54.1755 22.2155 55.0452 28.5811 55.0452C40.4844 55.0452 53.374 51.7782 53.374 45.3961C53.374 39.8085 43.7054 37.274 37.9998 36.4208ZM16.5977 26.5208C16.5795 26.4931 16.5606 26.4661 16.5408 26.4395C14.6623 23.9251 13.7053 20.9453 13.7053 17.9496C13.7053 9.90676 20.3615 3.36872 28.5811 3.36872C36.7836 3.36872 43.4568 9.90966 43.4568 17.9496C43.4568 20.9501 42.5179 23.8289 40.7411 26.277C40.5819 26.4813 41.4126 25.2256 28.5811 44.816L16.5977 26.5208ZM28.5811 51.8288C15.5792 51.8288 7.09389 48.1104 7.09389 45.3961C7.09389 43.5718 11.4539 40.5721 21.1154 39.4028L27.1872 48.6727C27.4906 49.1361 28.0163 49.4166 28.581 49.4166C29.1457 49.4166 29.6714 49.136 29.9748 48.6727L36.0464 39.4028C45.7082 40.5721 50.0683 43.5718 50.0683 45.3961C50.0683 48.0873 41.6593 51.8288 28.5811 51.8288Z" fill="#A82D2C"/>
<path d="M28.5811 10.4913C24.3543 10.4913 20.9155 13.8371 20.9155 17.9496C20.9155 22.0622 24.3543 25.408 28.5811 25.408C32.8078 25.408 36.2466 22.0622 36.2466 17.9496C36.2466 13.8371 32.8078 10.4913 28.5811 10.4913ZM28.5811 22.4246C26.045 22.4246 23.9818 20.4171 23.9818 17.9496C23.9818 15.4821 26.045 13.4746 28.5811 13.4746C31.1171 13.4746 33.1804 15.4821 33.1804 17.9496C33.1804 20.4171 31.1171 22.4246 28.5811 22.4246Z" fill="#A82D2C"/>
<path fill-rule="evenodd" clip-rule="evenodd" d="M7.84722 43.9487C7.24543 44.5694 7.10268 45.0029 7.10268 45.3803C7.10268 45.8438 7.33884 46.5028 8.33563 47.32C9.32064 48.1275 10.7742 48.8623 12.785 49.5595C16.7919 50.9489 22.3022 51.8151 28.5972 51.8151C34.8921 51.8151 40.5095 50.9064 44.5164 49.517C46.5272 48.8198 47.972 48.0144 48.957 47.2069C49.9538 46.3898 50.0822 45.8032 50.0822 45.3397C50.0822 44.9623 49.7982 44.4403 49.1964 43.8196C48.5883 43.1924 47.6483 42.6129 46.3118 41.9883C43.6445 40.7416 39.9839 39.9283 36.0579 39.3768L37.9978 36.426C41.5073 36.8608 45.3194 37.9796 47.9144 39.1925C49.4453 39.908 50.788 40.7223 51.7448 41.7092C52.708 42.7025 53.3607 43.9608 53.3607 45.3803C53.3607 47.1421 52.328 48.595 50.9727 49.7061C49.6056 50.8268 47.72 51.7679 45.5251 52.529C41.1205 54.0562 35.1343 54.9731 28.5937 54.9731C22.0531 54.9731 16.067 54.0562 11.6624 52.529C9.46742 51.7679 7.58189 50.8268 6.2148 49.7061C4.85949 48.595 3.78505 47.1421 3.78505 45.3803C3.78505 43.9608 4.4599 42.7085 5.42302 41.7151C6.37983 40.7283 7.73467 39.8563 9.26557 39.1408C11.8648 37.9259 15.2565 36.9953 19.1522 36.4141L21.0999 39.4041C16.6635 39.961 13.2894 40.842 10.6221 42.0886C9.28561 42.7133 8.45532 43.3215 7.84722 43.9487Z" fill="#A82D2C"/>
</g>
<defs>
<clipPath id="clip0">
<rect width="56.4177" height="54.8929" fill="white" transform="translate(0.372314 0.152344)"/>
</clipPath>
</defs>
</svg>
