<svg width="56" height="57" viewBox="0 0 56 57" fill="none" xmlns="http://www.w3.org/2000/svg">
<path d="M47.7516 8.47141C42.4719 3.19186 35.4522 0.28418 27.9857 0.28418C20.5191 0.28418 13.4995 3.19186 8.2197 8.47141C2.94015 13.7512 0.0324707 20.7708 0.0324707 28.2374C0.0324707 33.1625 1.32487 37.9807 3.77623 42.2184L0.0324707 56.1906L14.0046 52.4468C18.2423 54.8982 23.0605 56.1906 27.9857 56.1906C35.4522 56.1906 42.4719 53.2829 47.7516 48.0033C53.0312 42.7236 55.9388 35.7039 55.9388 28.2374C55.9388 20.7708 53.0312 13.7512 47.7516 8.47141ZM27.9857 52.9148C23.4263 52.9148 18.9722 51.6613 15.1048 49.2895L14.5047 48.9215L4.66506 51.5581L7.30161 41.7184L6.93363 41.1183C4.56176 37.2509 3.30823 32.7967 3.30823 28.2374C3.30823 14.6302 14.3785 3.55994 27.9857 3.55994C41.5929 3.55994 52.6631 14.6302 52.6631 28.2374C52.6631 41.8446 41.5929 52.9148 27.9857 52.9148Z" fill="#A82D2C"/>
<path d="M29.6227 38.8835H26.347V42.1593H29.6227V38.8835Z" fill="#A82D2C"/>
<path d="M29.6227 11.3341H26.347V34.1157H29.6227V11.3341Z" fill="#A82D2C"/>
</svg>
